M48
;Layer_Color=6321
;FILE_FORMAT=2:5
INCH,TZ
;TYPE=PLATED
T1F00S00C0.01181
T2F00S00C0.01200
T3F00S00C0.01968
T4F00S00C0.06693
;TYPE=NON_PLATED
T5F00S00C0.13386
T6F00S00C0.62598
%
T01
X63779Y20630
X66417Y20591
X69095Y20630
Y24173
X66417Y24134
X63779Y24173
X56693Y34252
T02
X42000Y-13500
X41831Y-8000
X49000Y8500
X47240Y25240
X85433Y25591
X93500Y-6000
X86500Y-27000
X34500Y-26000
X39500Y-35000
X39760Y16500
X35500Y19500
X34141Y34500
X-52000Y2500
Y-12000
X-32500Y-25000
X-27000Y-33000
T03
X106299Y-27559
X89500Y0
X76378Y20472
T04
X123622Y-33071
Y33071
X-52756
Y-33071
T05
X118287Y-15512
Y15512
T06
X0Y0
M30
