G04*
G04 #@! TF.GenerationSoftware,Altium Limited,CircuitStudio,1.5.2 (30)*
G04*
G04 Layer_Color=13948096*
%FSLAX25Y25*%
%MOIN*%
G70*
G01*
G75*
%ADD17C,0.01000*%
%ADD40C,0.00500*%
%ADD65C,0.00984*%
%ADD66C,0.00787*%
%ADD67C,0.00394*%
%ADD68R,0.06300X0.11300*%
G36*
X-50000Y-11238D02*
X-50818D01*
Y-11753D01*
X-50821Y-11829D01*
X-50826Y-11901D01*
X-50835Y-11965D01*
X-50847Y-12024D01*
X-50858Y-12079D01*
X-50873Y-12125D01*
X-50890Y-12169D01*
X-50908Y-12207D01*
X-50923Y-12239D01*
X-50940Y-12268D01*
X-50955Y-12291D01*
X-50969Y-12309D01*
X-50978Y-12323D01*
X-50986Y-12332D01*
X-50992Y-12338D01*
X-50995Y-12341D01*
X-51030Y-12370D01*
X-51065Y-12396D01*
X-51100Y-12416D01*
X-51138Y-12437D01*
X-51176Y-12454D01*
X-51211Y-12466D01*
X-51278Y-12486D01*
X-51310Y-12492D01*
X-51339Y-12498D01*
X-51365Y-12501D01*
X-51385Y-12504D01*
X-51406Y-12507D01*
X-51429D01*
X-51484Y-12504D01*
X-51537Y-12498D01*
X-51583Y-12486D01*
X-51624Y-12478D01*
X-51659Y-12466D01*
X-51685Y-12454D01*
X-51699Y-12449D01*
X-51705Y-12446D01*
X-51749Y-12422D01*
X-51787Y-12393D01*
X-51822Y-12367D01*
X-51848Y-12341D01*
X-51868Y-12318D01*
X-51886Y-12300D01*
X-51894Y-12288D01*
X-51897Y-12283D01*
X-51921Y-12245D01*
X-51941Y-12201D01*
X-51958Y-12160D01*
X-51973Y-12122D01*
X-51982Y-12088D01*
X-51987Y-12061D01*
X-51993Y-12041D01*
Y-12038D01*
Y-12035D01*
X-51999Y-11992D01*
X-52005Y-11942D01*
X-52008Y-11890D01*
X-52011Y-11840D01*
X-52014Y-11797D01*
Y-11776D01*
Y-11759D01*
Y-11747D01*
Y-11735D01*
Y-11730D01*
Y-11727D01*
Y-10970D01*
X-50000D01*
Y-11238D01*
D02*
G37*
G36*
X-51775Y-13359D02*
X-50000D01*
Y-13627D01*
X-51775D01*
Y-14290D01*
X-52014D01*
Y-12696D01*
X-51775D01*
Y-13359D01*
D02*
G37*
G36*
X-50000Y-9215D02*
X-50949D01*
Y-10257D01*
X-50000D01*
Y-10525D01*
X-52014D01*
Y-10257D01*
X-51187D01*
Y-9215D01*
X-52014D01*
Y-8948D01*
X-50000D01*
Y-9215D01*
D02*
G37*
G36*
X-50100Y8954D02*
X-51166D01*
Y12125D01*
X-56359D01*
Y13400D01*
X-50100D01*
Y8954D01*
D02*
G37*
G36*
X-50000Y-18644D02*
X-50282D01*
Y-18362D01*
X-50000D01*
Y-18644D01*
D02*
G37*
G36*
Y-20305D02*
X-50239D01*
Y-19313D01*
X-50288Y-19348D01*
X-50309Y-19365D01*
X-50329Y-19380D01*
X-50346Y-19395D01*
X-50358Y-19406D01*
X-50367Y-19415D01*
X-50370Y-19418D01*
X-50384Y-19433D01*
X-50399Y-19450D01*
X-50437Y-19491D01*
X-50480Y-19537D01*
X-50524Y-19587D01*
X-50562Y-19633D01*
X-50579Y-19654D01*
X-50597Y-19671D01*
X-50608Y-19686D01*
X-50617Y-19697D01*
X-50623Y-19703D01*
X-50626Y-19706D01*
X-50666Y-19753D01*
X-50704Y-19799D01*
X-50742Y-19840D01*
X-50774Y-19878D01*
X-50806Y-19913D01*
X-50835Y-19942D01*
X-50861Y-19971D01*
X-50885Y-19994D01*
X-50908Y-20017D01*
X-50925Y-20035D01*
X-50940Y-20049D01*
X-50955Y-20064D01*
X-50972Y-20078D01*
X-50978Y-20084D01*
X-51027Y-20125D01*
X-51071Y-20160D01*
X-51114Y-20189D01*
X-51149Y-20212D01*
X-51182Y-20230D01*
X-51205Y-20241D01*
X-51219Y-20247D01*
X-51225Y-20250D01*
X-51269Y-20268D01*
X-51312Y-20279D01*
X-51353Y-20291D01*
X-51388Y-20297D01*
X-51420Y-20300D01*
X-51443Y-20302D01*
X-51464D01*
X-51507Y-20300D01*
X-51548Y-20294D01*
X-51589Y-20288D01*
X-51624Y-20276D01*
X-51694Y-20247D01*
X-51749Y-20218D01*
X-51775Y-20201D01*
X-51796Y-20186D01*
X-51816Y-20172D01*
X-51830Y-20157D01*
X-51842Y-20145D01*
X-51854Y-20140D01*
X-51857Y-20134D01*
X-51859Y-20131D01*
X-51889Y-20099D01*
X-51915Y-20064D01*
X-51935Y-20026D01*
X-51953Y-19988D01*
X-51982Y-19913D01*
X-52002Y-19837D01*
X-52008Y-19805D01*
X-52014Y-19773D01*
X-52017Y-19744D01*
X-52020Y-19721D01*
X-52022Y-19700D01*
Y-19683D01*
Y-19674D01*
Y-19671D01*
X-52020Y-19619D01*
X-52017Y-19569D01*
X-52008Y-19523D01*
X-51999Y-19479D01*
X-51987Y-19438D01*
X-51976Y-19400D01*
X-51961Y-19365D01*
X-51947Y-19333D01*
X-51932Y-19304D01*
X-51918Y-19281D01*
X-51906Y-19261D01*
X-51894Y-19243D01*
X-51886Y-19229D01*
X-51877Y-19220D01*
X-51874Y-19214D01*
X-51871Y-19211D01*
X-51842Y-19182D01*
X-51810Y-19156D01*
X-51775Y-19130D01*
X-51740Y-19109D01*
X-51670Y-19074D01*
X-51600Y-19051D01*
X-51569Y-19042D01*
X-51537Y-19034D01*
X-51510Y-19028D01*
X-51487Y-19022D01*
X-51467Y-19019D01*
X-51452D01*
X-51443Y-19016D01*
X-51440D01*
X-51414Y-19270D01*
X-51481Y-19275D01*
X-51539Y-19287D01*
X-51592Y-19304D01*
X-51632Y-19325D01*
X-51667Y-19342D01*
X-51691Y-19360D01*
X-51705Y-19371D01*
X-51711Y-19377D01*
X-51746Y-19421D01*
X-51772Y-19467D01*
X-51793Y-19517D01*
X-51804Y-19560D01*
X-51813Y-19601D01*
X-51816Y-19636D01*
X-51819Y-19648D01*
Y-19657D01*
Y-19662D01*
Y-19665D01*
X-51816Y-19726D01*
X-51804Y-19782D01*
X-51787Y-19828D01*
X-51769Y-19869D01*
X-51749Y-19901D01*
X-51734Y-19921D01*
X-51723Y-19936D01*
X-51717Y-19942D01*
X-51676Y-19977D01*
X-51635Y-20003D01*
X-51595Y-20023D01*
X-51554Y-20035D01*
X-51522Y-20044D01*
X-51493Y-20046D01*
X-51475Y-20049D01*
X-51470D01*
X-51417Y-20044D01*
X-51362Y-20032D01*
X-51312Y-20011D01*
X-51266Y-19991D01*
X-51228Y-19968D01*
X-51196Y-19948D01*
X-51184Y-19942D01*
X-51176Y-19936D01*
X-51173Y-19930D01*
X-51170D01*
X-51138Y-19907D01*
X-51106Y-19878D01*
X-51071Y-19846D01*
X-51036Y-19811D01*
X-50966Y-19738D01*
X-50896Y-19665D01*
X-50864Y-19627D01*
X-50835Y-19595D01*
X-50809Y-19563D01*
X-50786Y-19537D01*
X-50768Y-19517D01*
X-50754Y-19499D01*
X-50745Y-19488D01*
X-50742Y-19485D01*
X-50681Y-19412D01*
X-50623Y-19345D01*
X-50570Y-19290D01*
X-50527Y-19246D01*
X-50489Y-19208D01*
X-50463Y-19182D01*
X-50445Y-19168D01*
X-50442Y-19162D01*
X-50439D01*
X-50390Y-19121D01*
X-50343Y-19089D01*
X-50297Y-19060D01*
X-50256Y-19037D01*
X-50221Y-19019D01*
X-50195Y-19008D01*
X-50178Y-19002D01*
X-50175Y-18999D01*
X-50172D01*
X-50140Y-18987D01*
X-50111Y-18981D01*
X-50081Y-18976D01*
X-50055Y-18973D01*
X-50032Y-18970D01*
X-50000D01*
Y-20305D01*
D02*
G37*
G36*
Y-15713D02*
Y-15949D01*
X-51461Y-16505D01*
Y-16249D01*
X-50568Y-15926D01*
X-50509Y-15905D01*
X-50457Y-15885D01*
X-50407Y-15871D01*
X-50370Y-15856D01*
X-50335Y-15847D01*
X-50311Y-15839D01*
X-50297Y-15836D01*
X-50291Y-15833D01*
X-50346Y-15815D01*
X-50402Y-15801D01*
X-50451Y-15783D01*
X-50495Y-15769D01*
X-50533Y-15757D01*
X-50562Y-15748D01*
X-50570Y-15745D01*
X-50579Y-15743D01*
X-50582Y-15740D01*
X-50585D01*
X-51461Y-15425D01*
Y-15164D01*
X-50000Y-15713D01*
D02*
G37*
G36*
X-51295Y-16889D02*
X-51315Y-16933D01*
X-51336Y-16976D01*
X-51356Y-17017D01*
X-51373Y-17052D01*
X-51388Y-17081D01*
X-51400Y-17099D01*
X-51403Y-17102D01*
Y-17105D01*
X-51435Y-17157D01*
X-51467Y-17203D01*
X-51496Y-17244D01*
X-51522Y-17276D01*
X-51542Y-17305D01*
X-51560Y-17323D01*
X-51571Y-17337D01*
X-51574Y-17340D01*
X-50000D01*
Y-17587D01*
X-52022D01*
Y-17427D01*
X-51973Y-17398D01*
X-51926Y-17366D01*
X-51880Y-17328D01*
X-51839Y-17294D01*
X-51804Y-17259D01*
X-51775Y-17233D01*
X-51766Y-17221D01*
X-51758Y-17212D01*
X-51755Y-17209D01*
X-51752Y-17206D01*
X-51702Y-17145D01*
X-51656Y-17084D01*
X-51615Y-17026D01*
X-51583Y-16968D01*
X-51554Y-16918D01*
X-51542Y-16898D01*
X-51534Y-16880D01*
X-51525Y-16866D01*
X-51522Y-16854D01*
X-51516Y-16848D01*
Y-16846D01*
X-51278D01*
X-51295Y-16889D01*
D02*
G37*
G36*
X-50000Y-2653D02*
X-50914D01*
Y-3599D01*
X-51152D01*
Y-2653D01*
X-51775D01*
Y-3748D01*
X-52014D01*
Y-2386D01*
X-50000D01*
Y-2653D01*
D02*
G37*
G36*
X-52168Y8326D02*
X-51904Y8289D01*
X-51676Y8244D01*
X-51576Y8216D01*
X-51485Y8189D01*
X-51403Y8162D01*
X-51330Y8134D01*
X-51266Y8107D01*
X-51211Y8089D01*
X-51166Y8071D01*
X-51139Y8052D01*
X-51120Y8043D01*
X-51111D01*
X-50920Y7916D01*
X-50756Y7779D01*
X-50610Y7633D01*
X-50492Y7497D01*
X-50401Y7369D01*
X-50337Y7269D01*
X-50309Y7232D01*
X-50291Y7205D01*
X-50282Y7187D01*
Y7178D01*
X-50191Y6959D01*
X-50118Y6750D01*
X-50073Y6549D01*
X-50036Y6358D01*
X-50018Y6203D01*
X-50009Y6139D01*
Y6085D01*
X-50000Y6039D01*
Y6003D01*
Y5985D01*
Y5975D01*
X-50009Y5784D01*
X-50027Y5611D01*
X-50064Y5438D01*
X-50109Y5283D01*
X-50155Y5128D01*
X-50209Y4992D01*
X-50273Y4864D01*
X-50337Y4746D01*
X-50401Y4645D01*
X-50464Y4554D01*
X-50519Y4472D01*
X-50565Y4408D01*
X-50610Y4354D01*
X-50647Y4317D01*
X-50665Y4299D01*
X-50674Y4290D01*
X-50811Y4172D01*
X-50947Y4071D01*
X-51084Y3980D01*
X-51230Y3898D01*
X-51375Y3835D01*
X-51521Y3780D01*
X-51658Y3734D01*
X-51794Y3698D01*
X-51913Y3670D01*
X-52031Y3652D01*
X-52131Y3634D01*
X-52223Y3625D01*
X-52296Y3616D01*
X-52396D01*
X-52587Y3625D01*
X-52769Y3643D01*
X-52933Y3680D01*
X-53097Y3716D01*
X-53243Y3771D01*
X-53389Y3825D01*
X-53516Y3889D01*
X-53635Y3944D01*
X-53735Y4008D01*
X-53835Y4071D01*
X-53908Y4126D01*
X-53981Y4181D01*
X-54026Y4217D01*
X-54072Y4254D01*
X-54090Y4272D01*
X-54099Y4281D01*
X-54218Y4408D01*
X-54318Y4545D01*
X-54409Y4682D01*
X-54491Y4828D01*
X-54555Y4973D01*
X-54610Y5110D01*
X-54655Y5246D01*
X-54691Y5383D01*
X-54719Y5502D01*
X-54737Y5620D01*
X-54755Y5720D01*
X-54764Y5811D01*
X-54773Y5884D01*
Y5939D01*
Y5975D01*
Y5985D01*
X-54764Y6230D01*
X-54728Y6458D01*
X-54682Y6668D01*
X-54628Y6850D01*
X-54591Y6923D01*
X-54564Y6996D01*
X-54546Y7059D01*
X-54518Y7105D01*
X-54500Y7151D01*
X-54482Y7178D01*
X-54473Y7196D01*
Y7205D01*
X-54345Y7396D01*
X-54209Y7560D01*
X-54063Y7706D01*
X-53926Y7825D01*
X-53799Y7916D01*
X-53698Y7989D01*
X-53662Y8016D01*
X-53635Y8025D01*
X-53616Y8043D01*
X-53607D01*
X-53398Y8144D01*
X-53188Y8207D01*
X-52997Y8262D01*
X-52824Y8298D01*
X-52669Y8317D01*
X-52605Y8326D01*
X-52551D01*
X-52514Y8335D01*
X-52450D01*
X-52168Y8326D01*
D02*
G37*
G36*
X-45143Y28561D02*
X-33980D01*
X-33946Y-25876D01*
X-34082Y-26903D01*
X-34478Y-27861D01*
X-35109Y-28684D01*
X-35932Y-29315D01*
X-36890Y-29711D01*
X-37917Y-29847D01*
Y-29813D01*
X-49080D01*
X-49114Y24624D01*
X-48979Y25652D01*
X-48582Y26610D01*
X-47951Y27432D01*
X-47129Y28063D01*
X-46171Y28460D01*
X-45143Y28595D01*
Y28561D01*
D02*
G37*
G36*
X-50000Y-2004D02*
X-50239D01*
Y-768D01*
X-50923D01*
Y-1882D01*
X-51161D01*
Y-768D01*
X-51775D01*
Y-1958D01*
X-52014D01*
Y-500D01*
X-50000D01*
Y-2004D01*
D02*
G37*
G36*
Y-6241D02*
X-50893D01*
Y-6550D01*
Y-6585D01*
X-50890Y-6617D01*
Y-6640D01*
X-50888Y-6661D01*
X-50885Y-6675D01*
Y-6687D01*
X-50882Y-6692D01*
Y-6695D01*
X-50867Y-6742D01*
X-50858Y-6762D01*
X-50850Y-6780D01*
X-50841Y-6797D01*
X-50835Y-6809D01*
X-50832Y-6815D01*
X-50829Y-6818D01*
X-50812Y-6841D01*
X-50792Y-6864D01*
X-50748Y-6908D01*
X-50727Y-6928D01*
X-50710Y-6943D01*
X-50698Y-6951D01*
X-50696Y-6954D01*
X-50655Y-6983D01*
X-50611Y-7016D01*
X-50564Y-7047D01*
X-50521Y-7079D01*
X-50480Y-7106D01*
X-50448Y-7126D01*
X-50437Y-7135D01*
X-50428Y-7141D01*
X-50422Y-7146D01*
X-50419D01*
X-50000Y-7411D01*
Y-7743D01*
X-50547Y-7397D01*
X-50605Y-7356D01*
X-50658Y-7318D01*
X-50701Y-7280D01*
X-50742Y-7248D01*
X-50771Y-7219D01*
X-50794Y-7196D01*
X-50809Y-7181D01*
X-50815Y-7175D01*
X-50832Y-7152D01*
X-50853Y-7126D01*
X-50885Y-7074D01*
X-50896Y-7050D01*
X-50908Y-7033D01*
X-50914Y-7021D01*
X-50917Y-7016D01*
X-50925Y-7068D01*
X-50934Y-7117D01*
X-50949Y-7161D01*
X-50960Y-7205D01*
X-50975Y-7243D01*
X-50992Y-7277D01*
X-51007Y-7309D01*
X-51021Y-7339D01*
X-51039Y-7362D01*
X-51053Y-7385D01*
X-51065Y-7402D01*
X-51077Y-7417D01*
X-51085Y-7429D01*
X-51094Y-7437D01*
X-51097Y-7440D01*
X-51100Y-7443D01*
X-51129Y-7467D01*
X-51158Y-7490D01*
X-51219Y-7525D01*
X-51280Y-7548D01*
X-51339Y-7565D01*
X-51388Y-7577D01*
X-51408Y-7580D01*
X-51429D01*
X-51443Y-7583D01*
X-51464D01*
X-51525Y-7580D01*
X-51580Y-7571D01*
X-51632Y-7557D01*
X-51676Y-7542D01*
X-51714Y-7525D01*
X-51743Y-7513D01*
X-51761Y-7502D01*
X-51763Y-7499D01*
X-51766D01*
X-51813Y-7464D01*
X-51854Y-7429D01*
X-51889Y-7391D01*
X-51915Y-7356D01*
X-51935Y-7324D01*
X-51947Y-7298D01*
X-51955Y-7280D01*
X-51958Y-7277D01*
Y-7275D01*
X-51967Y-7248D01*
X-51976Y-7216D01*
X-51990Y-7152D01*
X-51999Y-7082D01*
X-52008Y-7018D01*
X-52011Y-6957D01*
Y-6931D01*
X-52014Y-6908D01*
Y-6890D01*
Y-6876D01*
Y-6867D01*
Y-6864D01*
Y-5974D01*
X-50000D01*
Y-6241D01*
D02*
G37*
G36*
X-50605Y-8636D02*
X-50853D01*
Y-7871D01*
X-50605D01*
Y-8636D01*
D02*
G37*
G36*
X-50000Y-4362D02*
X-50818D01*
Y-4877D01*
X-50821Y-4952D01*
X-50826Y-5025D01*
X-50835Y-5089D01*
X-50847Y-5147D01*
X-50858Y-5203D01*
X-50873Y-5249D01*
X-50890Y-5293D01*
X-50908Y-5331D01*
X-50923Y-5363D01*
X-50940Y-5392D01*
X-50955Y-5415D01*
X-50969Y-5432D01*
X-50978Y-5447D01*
X-50986Y-5456D01*
X-50992Y-5461D01*
X-50995Y-5464D01*
X-51030Y-5494D01*
X-51065Y-5520D01*
X-51100Y-5540D01*
X-51138Y-5561D01*
X-51176Y-5578D01*
X-51211Y-5590D01*
X-51278Y-5610D01*
X-51310Y-5616D01*
X-51339Y-5622D01*
X-51365Y-5624D01*
X-51385Y-5627D01*
X-51406Y-5630D01*
X-51429D01*
X-51484Y-5627D01*
X-51537Y-5622D01*
X-51583Y-5610D01*
X-51624Y-5601D01*
X-51659Y-5590D01*
X-51685Y-5578D01*
X-51699Y-5572D01*
X-51705Y-5569D01*
X-51749Y-5546D01*
X-51787Y-5517D01*
X-51822Y-5491D01*
X-51848Y-5464D01*
X-51868Y-5441D01*
X-51886Y-5424D01*
X-51894Y-5412D01*
X-51897Y-5406D01*
X-51921Y-5368D01*
X-51941Y-5325D01*
X-51958Y-5284D01*
X-51973Y-5246D01*
X-51982Y-5211D01*
X-51987Y-5185D01*
X-51993Y-5165D01*
Y-5162D01*
Y-5159D01*
X-51999Y-5115D01*
X-52005Y-5066D01*
X-52008Y-5013D01*
X-52011Y-4964D01*
X-52014Y-4920D01*
Y-4900D01*
Y-4882D01*
Y-4871D01*
Y-4859D01*
Y-4853D01*
Y-4851D01*
Y-4094D01*
X-50000D01*
Y-4362D01*
D02*
G37*
%LPC*%
G36*
X-52323Y7096D02*
X-52387D01*
X-52623Y7078D01*
X-52833Y7041D01*
X-53015Y6996D01*
X-53161Y6932D01*
X-53270Y6877D01*
X-53361Y6823D01*
X-53407Y6786D01*
X-53425Y6777D01*
X-53544Y6650D01*
X-53635Y6513D01*
X-53698Y6376D01*
X-53744Y6249D01*
X-53771Y6139D01*
X-53780Y6057D01*
X-53790Y6021D01*
Y5994D01*
Y5985D01*
Y5975D01*
X-53771Y5802D01*
X-53735Y5647D01*
X-53671Y5520D01*
X-53607Y5401D01*
X-53544Y5310D01*
X-53480Y5237D01*
X-53443Y5201D01*
X-53425Y5183D01*
X-53279Y5074D01*
X-53106Y4992D01*
X-52933Y4937D01*
X-52769Y4891D01*
X-52623Y4873D01*
X-52551Y4864D01*
X-52496D01*
X-52450Y4855D01*
X-52387D01*
X-52150Y4873D01*
X-51931Y4910D01*
X-51758Y4955D01*
X-51603Y5019D01*
X-51494Y5083D01*
X-51403Y5128D01*
X-51357Y5165D01*
X-51339Y5183D01*
X-51221Y5310D01*
X-51129Y5438D01*
X-51075Y5574D01*
X-51029Y5702D01*
X-51002Y5811D01*
X-50993Y5893D01*
X-50984Y5930D01*
Y5957D01*
Y5966D01*
Y5975D01*
X-51002Y6148D01*
X-51038Y6303D01*
X-51093Y6440D01*
X-51166Y6549D01*
X-51230Y6650D01*
X-51284Y6722D01*
X-51321Y6759D01*
X-51339Y6777D01*
X-51485Y6886D01*
X-51658Y6959D01*
X-51831Y7014D01*
X-52004Y7059D01*
X-52150Y7078D01*
X-52214Y7087D01*
X-52277D01*
X-52323Y7096D01*
D02*
G37*
G36*
X-51056Y-4362D02*
X-51775D01*
Y-4874D01*
Y-4938D01*
X-51772Y-4990D01*
X-51769Y-5034D01*
X-51766Y-5069D01*
X-51761Y-5092D01*
X-51758Y-5109D01*
X-51755Y-5121D01*
Y-5124D01*
X-51740Y-5162D01*
X-51723Y-5194D01*
X-51705Y-5223D01*
X-51685Y-5249D01*
X-51665Y-5267D01*
X-51650Y-5281D01*
X-51638Y-5290D01*
X-51635Y-5293D01*
X-51600Y-5313D01*
X-51566Y-5331D01*
X-51528Y-5342D01*
X-51496Y-5348D01*
X-51467Y-5354D01*
X-51440Y-5357D01*
X-51420D01*
X-51359Y-5351D01*
X-51307Y-5339D01*
X-51260Y-5322D01*
X-51222Y-5302D01*
X-51193Y-5281D01*
X-51170Y-5264D01*
X-51158Y-5252D01*
X-51152Y-5246D01*
X-51135Y-5226D01*
X-51120Y-5200D01*
X-51097Y-5144D01*
X-51080Y-5083D01*
X-51068Y-5022D01*
X-51062Y-4967D01*
X-51059Y-4944D01*
Y-4923D01*
X-51056Y-4903D01*
Y-4891D01*
Y-4882D01*
Y-4879D01*
Y-4362D01*
D02*
G37*
G36*
X-51123Y-6241D02*
X-51790D01*
Y-6876D01*
X-51787Y-6954D01*
X-51775Y-7021D01*
X-51761Y-7079D01*
X-51743Y-7123D01*
X-51726Y-7161D01*
X-51711Y-7184D01*
X-51699Y-7199D01*
X-51696Y-7205D01*
X-51659Y-7240D01*
X-51621Y-7266D01*
X-51580Y-7283D01*
X-51545Y-7298D01*
X-51510Y-7304D01*
X-51484Y-7306D01*
X-51467Y-7309D01*
X-51461D01*
X-51426Y-7306D01*
X-51391Y-7301D01*
X-51362Y-7292D01*
X-51336Y-7283D01*
X-51312Y-7272D01*
X-51295Y-7263D01*
X-51283Y-7257D01*
X-51280Y-7254D01*
X-51251Y-7234D01*
X-51225Y-7208D01*
X-51205Y-7181D01*
X-51187Y-7155D01*
X-51176Y-7132D01*
X-51167Y-7114D01*
X-51161Y-7103D01*
X-51158Y-7097D01*
X-51147Y-7056D01*
X-51138Y-7010D01*
X-51132Y-6963D01*
X-51129Y-6916D01*
X-51126Y-6876D01*
X-51123Y-6841D01*
Y-6829D01*
Y-6820D01*
Y-6815D01*
Y-6812D01*
Y-6241D01*
D02*
G37*
G36*
X-51056Y-11238D02*
X-51775D01*
Y-11750D01*
Y-11814D01*
X-51772Y-11867D01*
X-51769Y-11910D01*
X-51766Y-11945D01*
X-51761Y-11968D01*
X-51758Y-11986D01*
X-51755Y-11997D01*
Y-12000D01*
X-51740Y-12038D01*
X-51723Y-12070D01*
X-51705Y-12099D01*
X-51685Y-12125D01*
X-51665Y-12143D01*
X-51650Y-12157D01*
X-51638Y-12166D01*
X-51635Y-12169D01*
X-51600Y-12190D01*
X-51566Y-12207D01*
X-51528Y-12219D01*
X-51496Y-12224D01*
X-51467Y-12230D01*
X-51440Y-12233D01*
X-51420D01*
X-51359Y-12227D01*
X-51307Y-12216D01*
X-51260Y-12198D01*
X-51222Y-12178D01*
X-51193Y-12157D01*
X-51170Y-12140D01*
X-51158Y-12128D01*
X-51152Y-12122D01*
X-51135Y-12102D01*
X-51120Y-12076D01*
X-51097Y-12021D01*
X-51080Y-11960D01*
X-51068Y-11898D01*
X-51062Y-11843D01*
X-51059Y-11820D01*
Y-11800D01*
X-51056Y-11779D01*
Y-11767D01*
Y-11759D01*
Y-11756D01*
Y-11238D01*
D02*
G37*
%LPD*%
D17*
X80177Y-15512D02*
G03*
X80177Y-15512I-500J0D01*
G01*
X-56200Y7200D02*
G03*
X-56200Y7200I-100J0D01*
G01*
Y4800D02*
G03*
X-56200Y4800I-100J0D01*
G01*
X60866Y-30559D02*
Y-24559D01*
D40*
X-53937Y39370D02*
G03*
X-59055Y34252I0J-5118D01*
G01*
Y-34252D02*
G03*
X-53937Y-39370I5118J0D01*
G01*
X124803D02*
G03*
X129921Y-34252I0J5118D01*
G01*
Y34252D02*
G03*
X124803Y39370I-5118J0D01*
G01*
X79940Y31528D02*
X83440D01*
X79940Y27528D02*
X83440D01*
X74040D02*
X77540D01*
X74040Y31528D02*
X77540D01*
X83440Y27528D02*
Y31528D01*
X74040Y27528D02*
Y31528D01*
X82894Y14882D02*
Y22362D01*
Y-22362D02*
Y-15000D01*
Y-22362D02*
X112303D01*
X124272D02*
X136437D01*
Y22362D01*
X124272D02*
X136437D01*
X82894D02*
X112303D01*
X95079Y-25000D02*
X101772D01*
X95079Y-30118D02*
X101772D01*
X104823Y-29528D02*
Y-25591D01*
X50362Y30291D02*
X54362D01*
X50362Y20890D02*
X54362D01*
Y26791D02*
Y30291D01*
X50362Y26791D02*
Y30291D01*
Y20890D02*
Y24390D01*
X54362Y20890D02*
Y24390D01*
X69366Y-30559D02*
X72366D01*
X69366Y-24559D02*
X72366D01*
X57106Y6000D02*
X57894D01*
X57106Y11000D02*
X57894D01*
X43031Y17398D02*
X46968D01*
X47559Y7654D02*
Y14346D01*
X42441Y7654D02*
Y14346D01*
X59700Y15500D02*
Y19500D01*
X50300Y15500D02*
Y19500D01*
X56200Y15500D02*
X59700D01*
X56200Y19500D02*
X59700D01*
X50300D02*
X53800D01*
X50300Y15500D02*
X53800D01*
X-53937Y39370D02*
X124803D01*
X-59055Y-34252D02*
Y34252D01*
X-53937Y-39370D02*
X124803D01*
X129921Y-34252D02*
Y-25591D01*
Y25591D02*
Y34252D01*
X89389Y31528D02*
X92889D01*
X89389Y27528D02*
X92889D01*
X83489D02*
X86989D01*
X83489Y31528D02*
X86989D01*
X92889Y27528D02*
Y31528D01*
X83489Y27528D02*
Y31528D01*
X55087Y26791D02*
Y30291D01*
X59087Y26791D02*
Y30291D01*
Y20890D02*
Y24390D01*
X55087Y20890D02*
Y24390D01*
Y30291D02*
X59087D01*
X55087Y20890D02*
X59087D01*
X41500Y6300D02*
Y9800D01*
X37500Y6300D02*
Y9800D01*
Y12200D02*
Y15700D01*
X41500Y12200D02*
Y15700D01*
X37500Y6300D02*
X41500D01*
X37500Y15700D02*
X41500D01*
X116142Y25591D02*
Y33465D01*
Y25591D02*
X129921D01*
X116142Y-25591D02*
X129921D01*
X116142Y-33465D02*
Y-25591D01*
X81496Y32283D02*
Y35282D01*
X79997D01*
X79497Y34783D01*
Y33783D01*
X79997Y33283D01*
X81496D01*
X80496D02*
X79497Y32283D01*
X78497Y34783D02*
X77997Y35282D01*
X76998D01*
X76498Y34783D01*
Y34283D01*
X76998Y33783D01*
X77497D01*
X76998D01*
X76498Y33283D01*
Y32783D01*
X76998Y32283D01*
X77997D01*
X78497Y32783D01*
X112337Y26705D02*
X112796Y27165D01*
X113714D01*
X114173Y26705D01*
Y24869D01*
X113714Y24409D01*
X112796D01*
X112337Y24869D01*
X111418Y24409D02*
Y27165D01*
X109581Y24409D01*
Y27165D01*
X108663Y24409D02*
X107745D01*
X108204D01*
Y27165D01*
X108663Y26705D01*
X104331Y-31253D02*
Y-34252D01*
X102831D01*
X102331Y-33752D01*
Y-31753D01*
X102831Y-31253D01*
X104331D01*
X101332Y-34252D02*
X100332D01*
X100832D01*
Y-31253D01*
X101332Y-31753D01*
X69001Y34000D02*
Y35999D01*
X69500Y36499D01*
X70500D01*
X71000Y35999D01*
Y34000D01*
X70500Y33500D01*
X69500D01*
X70000Y34500D02*
X69001Y33500D01*
X69500D02*
X69001Y34000D01*
X68001Y33500D02*
X67001D01*
X67501D01*
Y36499D01*
X68001Y35999D01*
X90551Y32283D02*
Y35282D01*
X89052D01*
X88552Y34783D01*
Y33783D01*
X89052Y33283D01*
X90551D01*
X89552D02*
X88552Y32283D01*
X86053D02*
Y35282D01*
X87552Y33783D01*
X85553D01*
X33500Y26499D02*
Y24000D01*
X33000Y23500D01*
X32000D01*
X31501Y24000D01*
Y26499D01*
X29001Y23500D02*
Y26499D01*
X30501Y24999D01*
X28502D01*
X56087Y31591D02*
X59086D01*
Y33090D01*
X58586Y33590D01*
X57586D01*
X57086Y33090D01*
Y31591D01*
Y32590D02*
X56087Y33590D01*
Y36589D02*
Y34590D01*
X58086Y36589D01*
X58586D01*
X59086Y36089D01*
Y35089D01*
X58586Y34590D01*
X50862Y31591D02*
X53861D01*
Y33090D01*
X53361Y33590D01*
X52362D01*
X51862Y33090D01*
Y31591D01*
Y32590D02*
X50862Y33590D01*
Y34590D02*
Y35589D01*
Y35089D01*
X53861D01*
X53361Y34590D01*
X35999Y10499D02*
X36499Y10000D01*
Y9000D01*
X35999Y8500D01*
X34000D01*
X33500Y9000D01*
Y10000D01*
X34000Y10499D01*
X36499Y13498D02*
Y11499D01*
X34999D01*
X35499Y12499D01*
Y12999D01*
X34999Y13498D01*
X34000D01*
X33500Y12999D01*
Y11999D01*
X34000Y11499D01*
X71229Y-19548D02*
X71729Y-19048D01*
X72729D01*
X73228Y-19548D01*
Y-21547D01*
X72729Y-22047D01*
X71729D01*
X71229Y-21547D01*
X70229Y-19548D02*
X69730Y-19048D01*
X68730D01*
X68230Y-19548D01*
Y-20048D01*
X68730Y-20548D01*
X69230D01*
X68730D01*
X68230Y-21048D01*
Y-21547D01*
X68730Y-22047D01*
X69730D01*
X70229Y-21547D01*
X42500Y-24501D02*
Y-27000D01*
X42000Y-27500D01*
X41001D01*
X40501Y-27000D01*
Y-24501D01*
X39501Y-25001D02*
X39001Y-24501D01*
X38001D01*
X37502Y-25001D01*
Y-25501D01*
X38001Y-26000D01*
X38501D01*
X38001D01*
X37502Y-26500D01*
Y-27000D01*
X38001Y-27500D01*
X39001D01*
X39501Y-27000D01*
D65*
X38303Y-1992D02*
G03*
X38303Y-1992I-492J0D01*
G01*
X36807Y29224D02*
G03*
X36807Y29224I-492J0D01*
G01*
D66*
X37811Y-8094D02*
X64189D01*
X37811Y-19906D02*
X64189D01*
X37811D02*
Y-8094D01*
X64189Y-19906D02*
Y-8094D01*
X37398Y23516D02*
Y25484D01*
X49602Y23516D02*
Y25484D01*
X37398D02*
X49602D01*
X37398Y23516D02*
X49602D01*
D67*
X57000Y13000D02*
Y14968D01*
X56016D01*
X55688Y14640D01*
Y13984D01*
X56016Y13656D01*
X57000D01*
X56344D02*
X55688Y13000D01*
X53720Y14968D02*
X55032D01*
Y13984D01*
X54376Y14312D01*
X54048D01*
X53720Y13984D01*
Y13328D01*
X54048Y13000D01*
X54704D01*
X55032Y13328D01*
X50368Y10522D02*
X48400D01*
Y11506D01*
X48728Y11834D01*
X50040D01*
X50368Y11506D01*
Y10522D01*
X48400Y13802D02*
Y12490D01*
X49712Y13802D01*
X50040D01*
X50368Y13474D01*
Y12818D01*
X50040Y12490D01*
X62074Y13845D02*
X62402Y14173D01*
X63058D01*
X63386Y13845D01*
Y12533D01*
X63058Y12205D01*
X62402D01*
X62074Y12533D01*
X60434Y12205D02*
Y14173D01*
X61418Y13189D01*
X60106D01*
D68*
X-53150Y21650D02*
D03*
M02*
