G04*
G04 #@! TF.GenerationSoftware,Altium Limited,CircuitStudio,1.5.2 (30)*
G04*
G04 Layer_Color=20142*
%FSLAX25Y25*%
%MOIN*%
G70*
G01*
G75*
%ADD43R,0.03800X0.03800*%
%ADD44R,0.05800X0.05300*%
%ADD45R,0.12611X0.06706*%
%ADD46R,0.07800X0.06800*%
%ADD47R,0.10642X0.06706*%
%ADD48R,0.03800X0.03800*%
%ADD49C,0.13986*%
%ADD50C,0.63398*%
%ADD51C,0.10642*%
D43*
X-24700Y-33000D02*
D03*
X-19300D02*
D03*
X-28800D02*
D03*
X-34200D02*
D03*
D44*
X-52000Y6760D02*
D03*
Y14240D02*
D03*
D45*
X-41339Y25000D02*
D03*
Y15000D02*
D03*
Y5000D02*
D03*
Y-5000D02*
D03*
Y-15000D02*
D03*
Y-25000D02*
D03*
D46*
X106500Y-35000D02*
D03*
Y35000D02*
D03*
X96500D02*
D03*
X86500D02*
D03*
X76500D02*
D03*
X66500D02*
D03*
X56500D02*
D03*
X46500D02*
D03*
Y-35000D02*
D03*
X56500D02*
D03*
X66500D02*
D03*
X76500D02*
D03*
X86500D02*
D03*
X96500D02*
D03*
D47*
X25500Y-32500D02*
D03*
Y32500D02*
D03*
D48*
X-52000Y-15800D02*
D03*
Y-21200D02*
D03*
Y-8700D02*
D03*
Y-3300D02*
D03*
D49*
X118287Y-15512D02*
D03*
Y15512D02*
D03*
D50*
X0Y0D02*
D03*
D51*
X-52756Y33071D02*
D03*
Y-33071D02*
D03*
X123622D02*
D03*
Y33071D02*
D03*
M02*
