G04*
G04 #@! TF.GenerationSoftware,Altium Limited,CircuitStudio,1.5.2 (30)*
G04*
G04 Layer_Color=11767835*
%FSLAX25Y25*%
%MOIN*%
G70*
G01*
G75*
%ADD10R,0.03000X0.03000*%
%ADD15R,0.03000X0.03000*%
%ADD20C,0.13386*%
%ADD21C,0.62598*%
%ADD22C,0.09843*%
%ADD27R,0.20984X0.06496*%
%ADD28R,0.03937X0.09843*%
%ADD29R,0.12992X0.09843*%
%ADD30R,0.02362X0.01969*%
%ADD31R,0.06299X0.07087*%
%ADD32R,0.05118X0.05906*%
%ADD33R,0.02559X0.04331*%
%ADD34R,0.01575X0.03268*%
%ADD35R,0.01969X0.02362*%
D10*
X81440Y29528D02*
D03*
X76040D02*
D03*
X57700Y17500D02*
D03*
X52300D02*
D03*
X90889Y29528D02*
D03*
X85489D02*
D03*
D15*
X52362Y28291D02*
D03*
Y22891D02*
D03*
X57087Y28291D02*
D03*
Y22891D02*
D03*
X39500Y8300D02*
D03*
Y13700D02*
D03*
D20*
X118287Y-15512D02*
D03*
Y15512D02*
D03*
D21*
X0Y0D02*
D03*
D22*
X-52756Y33071D02*
D03*
Y-33071D02*
D03*
X123622D02*
D03*
Y33071D02*
D03*
D27*
X76201Y-10000D02*
D03*
Y-0D02*
D03*
Y10000D02*
D03*
D28*
X41945Y-1992D02*
D03*
X51000D02*
D03*
X60055D02*
D03*
D29*
X51000Y-26008D02*
D03*
D30*
X102559Y-27559D02*
D03*
X94291D02*
D03*
D31*
X65354D02*
D03*
X76378D02*
D03*
D32*
X61240Y8500D02*
D03*
X53760D02*
D03*
D33*
X39760Y29224D02*
D03*
X43500D02*
D03*
X47240D02*
D03*
Y19776D02*
D03*
X39760D02*
D03*
D34*
X62661Y17957D02*
D03*
X65220D02*
D03*
X67779D02*
D03*
X70339D02*
D03*
Y30043D02*
D03*
X67779D02*
D03*
X65220D02*
D03*
X62661D02*
D03*
D35*
X45000Y6866D02*
D03*
Y15134D02*
D03*
M02*
