G04*
G04 #@! TF.GenerationSoftware,Altium Limited,CircuitStudio,1.5.2 (30)*
G04*
G04 Layer_Physical_Order=2*
G04 Layer_Color=12500520*
%FSLAX25Y25*%
%MOIN*%
G70*
G01*
G75*
%ADD10R,0.03000X0.03000*%
%ADD15R,0.03000X0.03000*%
%ADD16C,0.03937*%
%ADD17C,0.01000*%
%ADD18C,0.01969*%
%ADD19C,0.02000*%
%ADD20C,0.13386*%
%ADD21C,0.62598*%
%ADD22C,0.09843*%
%ADD23C,0.03937*%
%ADD24C,0.02362*%
%ADD25C,0.02800*%
%ADD26C,0.02400*%
%ADD27R,0.20984X0.06496*%
%ADD28R,0.03937X0.09843*%
%ADD29R,0.12992X0.09843*%
%ADD30R,0.02362X0.01969*%
%ADD31R,0.06299X0.07087*%
%ADD32R,0.05118X0.05906*%
%ADD33R,0.02559X0.04331*%
%ADD34R,0.01575X0.03268*%
%ADD35R,0.01969X0.02362*%
%ADD36C,0.01008*%
%ADD37C,0.04000*%
%ADD38R,0.08858X0.07284*%
G36*
X120352Y37647D02*
X119613Y37080D01*
X118712Y35906D01*
X118146Y34538D01*
X118031Y33671D01*
X123622D01*
Y33071D01*
X124222D01*
Y27480D01*
X125090Y27594D01*
X126457Y28161D01*
X127631Y29062D01*
X128199Y29801D01*
X128699Y29632D01*
Y-29632D01*
X128199Y-29801D01*
X127631Y-29062D01*
X126457Y-28161D01*
X125090Y-27594D01*
X124222Y-27480D01*
Y-33071D01*
X123622D01*
Y-33671D01*
X118031D01*
X118146Y-34538D01*
X118712Y-35906D01*
X119613Y-37080D01*
X120352Y-37647D01*
X120183Y-38147D01*
X27266D01*
X27128Y-37647D01*
X27439Y-37440D01*
X35440Y-29439D01*
X35728Y-29008D01*
X35829Y-28500D01*
Y-27757D01*
X36086Y-27586D01*
X36572Y-26858D01*
X36742Y-26000D01*
X36572Y-25142D01*
X36086Y-24414D01*
X35825Y-24240D01*
Y10691D01*
X36739Y11606D01*
X37201Y11414D01*
Y11401D01*
X41799D01*
Y13299D01*
X43216D01*
Y13154D01*
X45427D01*
X45618Y12692D01*
X44063Y11137D01*
X43776Y10707D01*
X43759Y10623D01*
X43675Y10200D01*
X43675Y10200D01*
Y8846D01*
X43216D01*
Y4886D01*
X43675D01*
Y4000D01*
X43675Y4000D01*
X43371Y3629D01*
X42545D01*
Y-1392D01*
X44613D01*
Y1326D01*
X45113Y1593D01*
X45175Y1552D01*
Y-8573D01*
X42409Y-11339D01*
X42000Y-11258D01*
X41142Y-11428D01*
X40414Y-11914D01*
X39928Y-12642D01*
X39758Y-13500D01*
X39819Y-13808D01*
X38563Y-15063D01*
X38276Y-15493D01*
X38259Y-15577D01*
X38175Y-16000D01*
X38175Y-16000D01*
Y-33240D01*
X37914Y-33414D01*
X37428Y-34142D01*
X37258Y-35000D01*
X37428Y-35858D01*
X37914Y-36586D01*
X38642Y-37072D01*
X39500Y-37242D01*
X40358Y-37072D01*
X41086Y-36586D01*
X41572Y-35858D01*
X41742Y-35000D01*
X41572Y-34142D01*
X41086Y-33414D01*
X40825Y-33240D01*
Y-16549D01*
X41692Y-15681D01*
X42000Y-15742D01*
X42858Y-15572D01*
X43586Y-15086D01*
X44072Y-14358D01*
X44242Y-13500D01*
X44201Y-13294D01*
X47437Y-10058D01*
X47708Y-9652D01*
X47746Y-9645D01*
X48208Y-9818D01*
Y-20287D01*
X43705D01*
Y-31728D01*
X58295D01*
Y-28818D01*
X61405D01*
Y-31902D01*
X69303D01*
Y-23217D01*
X61405D01*
Y-25182D01*
X58295D01*
Y-22859D01*
X60336Y-20818D01*
X84979D01*
X92311Y-28150D01*
Y-29342D01*
X94116D01*
X94291Y-29377D01*
X94467Y-29342D01*
X96272D01*
Y-25776D01*
X95079D01*
X87018Y-17714D01*
X86428Y-17320D01*
X85732Y-17182D01*
X59583D01*
X58887Y-17320D01*
X58297Y-17714D01*
X55724Y-20287D01*
X53792D01*
Y-1992D01*
X53768Y-1811D01*
Y3728D01*
X48232D01*
Y3014D01*
X47732Y2964D01*
X47724Y3007D01*
X47437Y3437D01*
X46488Y4386D01*
X46695Y4886D01*
X46784D01*
Y7137D01*
X47284Y7289D01*
X47486Y6986D01*
X48181Y6522D01*
X48400Y6478D01*
Y8500D01*
Y10522D01*
X48181Y10478D01*
X47486Y10014D01*
X47022Y9319D01*
X47021Y9316D01*
X46903Y9246D01*
X46416Y9216D01*
X46325Y9308D01*
Y9651D01*
X51874Y15201D01*
X54599D01*
Y19799D01*
X50001D01*
Y17358D01*
X49819Y17226D01*
X49319Y17481D01*
Y19981D01*
X49676Y20338D01*
X50063Y20591D01*
Y20591D01*
X50063Y20591D01*
X54428D01*
X54647Y20591D01*
X54661D01*
X55120Y20691D01*
X55161D01*
X56487D01*
Y22891D01*
Y25091D01*
X55161D01*
X55120D01*
X54661Y25190D01*
X54647D01*
X54428Y25190D01*
X50063D01*
Y24085D01*
X49758Y24024D01*
X49606Y23923D01*
X49246Y24283D01*
X49312Y24382D01*
X49483Y25240D01*
X49374Y25783D01*
X49319Y26260D01*
X49319Y26260D01*
X49319Y26260D01*
Y32189D01*
X45161D01*
Y32090D01*
X44100D01*
Y29224D01*
X42900D01*
Y32090D01*
X41839D01*
Y32189D01*
X37681D01*
Y26260D01*
X38435D01*
Y25240D01*
X38435Y25240D01*
X38519Y24817D01*
X38536Y24733D01*
X38823Y24304D01*
X39563Y23563D01*
X39563Y23563D01*
X39993Y23276D01*
X40174Y23240D01*
X40125Y22740D01*
X37681D01*
Y20556D01*
X37181Y20404D01*
X36870Y20870D01*
X36241Y21290D01*
X36100Y21318D01*
Y19500D01*
Y17682D01*
X36241Y17710D01*
X36870Y18130D01*
X37181Y18596D01*
X37681Y18444D01*
Y17322D01*
X37517Y16500D01*
X37530Y16440D01*
X37201Y15999D01*
X37201D01*
X36978Y15592D01*
X33563Y12177D01*
X33276Y11747D01*
X33259Y11663D01*
X33175Y11240D01*
X33175Y11240D01*
Y-24240D01*
X32914Y-24414D01*
X32428Y-25142D01*
X32258Y-26000D01*
X32428Y-26858D01*
X32914Y-27586D01*
X32939Y-28182D01*
X25950Y-35171D01*
X-25391D01*
X-25543Y-34671D01*
X-25414Y-34586D01*
X-24928Y-33858D01*
X-24758Y-33000D01*
X-24928Y-32142D01*
X-25414Y-31414D01*
X-26142Y-30928D01*
X-27000Y-30758D01*
X-27858Y-30928D01*
X-28586Y-31414D01*
X-29072Y-32142D01*
X-29242Y-33000D01*
X-29072Y-33858D01*
X-28586Y-34586D01*
X-28457Y-34671D01*
X-28609Y-35171D01*
X-30450D01*
X-46171Y-19450D01*
Y-2000D01*
X-46273Y-1491D01*
X-46560Y-1060D01*
X-49988Y2367D01*
X-49962Y2500D01*
X-50117Y3280D01*
X-50559Y3941D01*
X-51220Y4383D01*
X-52000Y4538D01*
X-52780Y4383D01*
X-53441Y3941D01*
X-53883Y3280D01*
X-54038Y2500D01*
X-53883Y1720D01*
X-53441Y1059D01*
X-52780Y617D01*
X-52000Y462D01*
X-51867Y488D01*
X-48829Y-2550D01*
Y-20000D01*
X-48728Y-20508D01*
X-48439Y-20940D01*
X-31940Y-37440D01*
X-31628Y-37647D01*
X-31765Y-38147D01*
X-49316D01*
X-49486Y-37647D01*
X-48747Y-37080D01*
X-47846Y-35906D01*
X-47279Y-34538D01*
X-47165Y-33671D01*
X-52756D01*
Y-33071D01*
X-53356D01*
Y-27480D01*
X-54223Y-27594D01*
X-55591Y-28161D01*
X-56765Y-29062D01*
X-57332Y-29801D01*
X-57832Y-29632D01*
Y29632D01*
X-57332Y29801D01*
X-56765Y29062D01*
X-55591Y28161D01*
X-54223Y27594D01*
X-53356Y27480D01*
Y33071D01*
X-52756D01*
Y33671D01*
X-47165D01*
X-47279Y34538D01*
X-47846Y35906D01*
X-48747Y37080D01*
X-49486Y37647D01*
X-49316Y38147D01*
X-16745D01*
X-16621Y37647D01*
X-16937Y37437D01*
X-16937Y37437D01*
X-39937Y14437D01*
X-40224Y14007D01*
X-40241Y13923D01*
X-40325Y13500D01*
X-40325Y13500D01*
Y-18500D01*
X-40325Y-18500D01*
X-40241Y-18923D01*
X-40224Y-19007D01*
X-39937Y-19437D01*
X-34681Y-24692D01*
X-34742Y-25000D01*
X-34572Y-25858D01*
X-34086Y-26586D01*
X-33358Y-27072D01*
X-32500Y-27242D01*
X-31642Y-27072D01*
X-30914Y-26586D01*
X-30428Y-25858D01*
X-30258Y-25000D01*
X-30428Y-24142D01*
X-30914Y-23414D01*
X-31642Y-22928D01*
X-32500Y-22758D01*
X-32808Y-22819D01*
X-37675Y-17951D01*
Y12951D01*
X-15451Y35175D01*
X26951D01*
X28563Y33563D01*
X28563Y33563D01*
X28993Y33276D01*
X29077Y33259D01*
X29500Y33175D01*
X29500Y33175D01*
X32381D01*
X32556Y32914D01*
X33283Y32428D01*
X34141Y32258D01*
X34999Y32428D01*
X35727Y32914D01*
X36213Y33642D01*
X36383Y34500D01*
X36213Y35358D01*
X35727Y36086D01*
X34999Y36572D01*
X34141Y36742D01*
X33283Y36572D01*
X32556Y36086D01*
X32381Y35825D01*
X30049D01*
X28437Y37437D01*
X28121Y37647D01*
X28245Y38147D01*
X120183D01*
X120352Y37647D01*
D02*
G37*
%LPC*%
G36*
X-52600Y-10182D02*
X-52741Y-10210D01*
X-53370Y-10630D01*
X-53790Y-11259D01*
X-53818Y-11400D01*
X-52600D01*
Y-10182D01*
D02*
G37*
G36*
X-51400D02*
Y-11400D01*
X-50182D01*
X-50210Y-11259D01*
X-50630Y-10630D01*
X-51259Y-10210D01*
X-51400Y-10182D01*
D02*
G37*
G36*
X41232Y-8600D02*
X39810D01*
X39853Y-8819D01*
X40317Y-9514D01*
X41012Y-9978D01*
X41232Y-10022D01*
Y-8600D01*
D02*
G37*
G36*
X87393Y-10600D02*
X76801D01*
Y-13948D01*
X87393D01*
Y-10600D01*
D02*
G37*
G36*
X-52600Y-12600D02*
X-53818D01*
X-53790Y-12741D01*
X-53370Y-13370D01*
X-52741Y-13790D01*
X-52600Y-13818D01*
Y-12600D01*
D02*
G37*
G36*
X-50182D02*
X-51400D01*
Y-13818D01*
X-51259Y-13790D01*
X-50630Y-13370D01*
X-50210Y-12741D01*
X-50182Y-12600D01*
D02*
G37*
G36*
X44613Y-2592D02*
X41945D01*
X39276D01*
Y-7400D01*
X41831D01*
Y-8000D01*
X42432D01*
Y-10022D01*
X42651Y-9978D01*
X43345Y-9514D01*
X43810Y-8819D01*
X43973Y-8000D01*
X43973Y-8000D01*
X44290Y-7614D01*
X44613D01*
Y-2592D01*
D02*
G37*
G36*
X95318Y-6600D02*
X94100D01*
Y-7818D01*
X94241Y-7790D01*
X94870Y-7370D01*
X95290Y-6741D01*
X95318Y-6600D01*
D02*
G37*
G36*
X92900Y-4182D02*
X92759Y-4210D01*
X92130Y-4630D01*
X91710Y-5259D01*
X91682Y-5400D01*
X92900D01*
Y-4182D01*
D02*
G37*
G36*
X94100D02*
Y-5400D01*
X95318D01*
X95290Y-5259D01*
X94870Y-4630D01*
X94241Y-4210D01*
X94100Y-4182D01*
D02*
G37*
G36*
X75601Y-6052D02*
X65009D01*
Y-9400D01*
X75601D01*
Y-6052D01*
D02*
G37*
G36*
X87393D02*
X76801D01*
Y-9400D01*
X87393D01*
Y-6052D01*
D02*
G37*
G36*
X92900Y-6600D02*
X91682D01*
X91710Y-6741D01*
X92130Y-7370D01*
X92759Y-7790D01*
X92900Y-7818D01*
Y-6600D01*
D02*
G37*
G36*
X75601Y-10600D02*
X65009D01*
Y-13948D01*
X75601D01*
Y-10600D01*
D02*
G37*
G36*
X75778Y-28159D02*
X72528D01*
Y-31802D01*
X75778D01*
Y-28159D01*
D02*
G37*
G36*
X80228D02*
X76978D01*
Y-31802D01*
X80228D01*
Y-28159D01*
D02*
G37*
G36*
X106299Y-24768D02*
X105577Y-24863D01*
X104903Y-25142D01*
X104325Y-25585D01*
X104206Y-25741D01*
X102559D01*
X102383Y-25776D01*
X100579D01*
Y-29342D01*
X102383D01*
X102559Y-29377D01*
X104206D01*
X104325Y-29533D01*
X104903Y-29977D01*
X105577Y-30255D01*
X106299Y-30351D01*
X107022Y-30255D01*
X107695Y-29977D01*
X108273Y-29533D01*
X108717Y-28955D01*
X108996Y-28282D01*
X109091Y-27559D01*
X108996Y-26836D01*
X108717Y-26163D01*
X108273Y-25585D01*
X107695Y-25142D01*
X107022Y-24863D01*
X106299Y-24768D01*
D02*
G37*
G36*
X123022Y-27480D02*
X122155Y-27594D01*
X120787Y-28161D01*
X119613Y-29062D01*
X118712Y-30236D01*
X118146Y-31603D01*
X118031Y-32471D01*
X123022D01*
Y-27480D01*
D02*
G37*
G36*
X-52156D02*
Y-32471D01*
X-47165D01*
X-47279Y-31603D01*
X-47846Y-30236D01*
X-48747Y-29062D01*
X-49921Y-28161D01*
X-51288Y-27594D01*
X-52156Y-27480D01*
D02*
G37*
G36*
X0Y32137D02*
X-3150Y31982D01*
X-6270Y31520D01*
X-9329Y30753D01*
X-12298Y29691D01*
X-15149Y28342D01*
X-17854Y26721D01*
X-20388Y24842D01*
X-22724Y22724D01*
X-24842Y20388D01*
X-26721Y17854D01*
X-28342Y15149D01*
X-29691Y12298D01*
X-30753Y9329D01*
X-31520Y6270D01*
X-31982Y3150D01*
X-32137Y0D01*
X-31982Y-3150D01*
X-31520Y-6270D01*
X-30753Y-9329D01*
X-29691Y-12298D01*
X-28342Y-15149D01*
X-26721Y-17854D01*
X-24842Y-20388D01*
X-22724Y-22724D01*
X-20388Y-24842D01*
X-17854Y-26721D01*
X-15149Y-28342D01*
X-12298Y-29691D01*
X-9329Y-30753D01*
X-6270Y-31520D01*
X-3150Y-31982D01*
X0Y-32137D01*
X3150Y-31982D01*
X6270Y-31520D01*
X9329Y-30753D01*
X12298Y-29691D01*
X15149Y-28342D01*
X17854Y-26721D01*
X20388Y-24842D01*
X22724Y-22724D01*
X24842Y-20388D01*
X26721Y-17854D01*
X28342Y-15149D01*
X29691Y-12298D01*
X30753Y-9329D01*
X31520Y-6270D01*
X31982Y-3150D01*
X32137Y0D01*
X31982Y3150D01*
X31520Y6270D01*
X30753Y9329D01*
X29691Y12298D01*
X28342Y15149D01*
X26721Y17854D01*
X24842Y20388D01*
X22724Y22724D01*
X20388Y24842D01*
X17854Y26721D01*
X15149Y28342D01*
X12298Y29691D01*
X9329Y30753D01*
X6270Y31520D01*
X3150Y31982D01*
X0Y32137D01*
D02*
G37*
G36*
X85900Y-27600D02*
X84478D01*
X84522Y-27819D01*
X84986Y-28514D01*
X85681Y-28978D01*
X85900Y-29022D01*
Y-27600D01*
D02*
G37*
G36*
Y-24978D02*
X85681Y-25022D01*
X84986Y-25486D01*
X84522Y-26181D01*
X84478Y-26400D01*
X85900D01*
Y-24978D01*
D02*
G37*
G36*
X87100D02*
Y-26400D01*
X88522D01*
X88478Y-26181D01*
X88014Y-25486D01*
X87319Y-25022D01*
X87100Y-24978D01*
D02*
G37*
G36*
X118287Y-7983D02*
X116819Y-8128D01*
X115406Y-8557D01*
X114105Y-9252D01*
X112964Y-10188D01*
X112028Y-11329D01*
X111332Y-12631D01*
X110904Y-14043D01*
X110759Y-15512D01*
X110904Y-16981D01*
X111332Y-18393D01*
X112028Y-19694D01*
X112964Y-20835D01*
X114105Y-21771D01*
X115406Y-22467D01*
X116819Y-22896D01*
X118287Y-23040D01*
X119756Y-22896D01*
X121168Y-22467D01*
X122470Y-21771D01*
X123611Y-20835D01*
X124547Y-19694D01*
X125243Y-18393D01*
X125671Y-16981D01*
X125816Y-15512D01*
X125671Y-14043D01*
X125243Y-12631D01*
X124547Y-11329D01*
X123611Y-10188D01*
X122470Y-9252D01*
X121168Y-8557D01*
X119756Y-8128D01*
X118287Y-7983D01*
D02*
G37*
G36*
X88522Y-27600D02*
X87100D01*
Y-29022D01*
X87319Y-28978D01*
X88014Y-28514D01*
X88478Y-27819D01*
X88522Y-27600D01*
D02*
G37*
G36*
X75778Y-23316D02*
X72528D01*
Y-26959D01*
X75778D01*
Y-23316D01*
D02*
G37*
G36*
X80228D02*
X76978D01*
Y-26959D01*
X80228D01*
Y-23316D01*
D02*
G37*
G36*
X41345Y3629D02*
X39276D01*
Y-1392D01*
X41345D01*
Y3629D01*
D02*
G37*
G36*
X90289Y28928D02*
X88689D01*
Y27328D01*
X90289D01*
Y28928D01*
D02*
G37*
G36*
X93089D02*
X91489D01*
Y27328D01*
X93089D01*
Y28928D01*
D02*
G37*
G36*
X123022Y32471D02*
X118031D01*
X118146Y31603D01*
X118712Y30236D01*
X119613Y29062D01*
X120787Y28161D01*
X122155Y27594D01*
X123022Y27480D01*
Y32471D01*
D02*
G37*
G36*
X34900Y21318D02*
X34759Y21290D01*
X34130Y20870D01*
X33710Y20241D01*
X33682Y20100D01*
X34900D01*
Y21318D01*
D02*
G37*
G36*
X59287Y22290D02*
X57687D01*
Y20691D01*
X59287D01*
Y22290D01*
D02*
G37*
G36*
X57687Y25091D02*
Y23491D01*
X59287D01*
Y25091D01*
X57687D01*
D02*
G37*
G36*
X93089Y31728D02*
X91489D01*
Y30128D01*
X93089D01*
Y31728D01*
D02*
G37*
G36*
X56693Y36290D02*
X55913Y36135D01*
X55252Y35693D01*
X54810Y35032D01*
X54655Y34252D01*
X54810Y33472D01*
X55252Y32811D01*
X55368Y32733D01*
Y30590D01*
X54787D01*
Y30590D01*
X54661D01*
Y30590D01*
X50063D01*
Y25991D01*
X54661D01*
Y25991D01*
X54787D01*
Y25991D01*
X59386D01*
Y30590D01*
X58018D01*
Y32733D01*
X58134Y32811D01*
X58576Y33472D01*
X58731Y34252D01*
X58576Y35032D01*
X58134Y35693D01*
X57473Y36135D01*
X56693Y36290D01*
D02*
G37*
G36*
X62061Y32377D02*
X61174D01*
Y30643D01*
X62061D01*
Y32377D01*
D02*
G37*
G36*
X-47165Y32471D02*
X-52156D01*
Y27480D01*
X-51288Y27594D01*
X-49921Y28161D01*
X-48747Y29062D01*
X-47846Y30236D01*
X-47279Y31603D01*
X-47165Y32471D01*
D02*
G37*
G36*
X71925Y32476D02*
X68752D01*
Y32377D01*
X68379D01*
Y30043D01*
X67180D01*
Y32377D01*
X65820D01*
Y30043D01*
X64621D01*
Y32377D01*
X63261D01*
Y30043D01*
X62661D01*
Y29443D01*
X61174D01*
Y27709D01*
X61174Y27709D01*
X61144Y27222D01*
X61038Y27151D01*
X60861Y26887D01*
X60799Y26575D01*
Y20290D01*
X60861Y19979D01*
X61038Y19714D01*
X61075Y19690D01*
Y15524D01*
X71312D01*
X71514Y15389D01*
X71826Y15327D01*
X80905D01*
X81217Y15389D01*
X81482Y15565D01*
X81658Y15830D01*
X81720Y16142D01*
Y26575D01*
X81690Y26728D01*
X81932Y27137D01*
X82031Y27228D01*
X83281D01*
X83548Y26728D01*
X83362Y26449D01*
X83191Y25591D01*
X83362Y24733D01*
X83847Y24005D01*
X84575Y23519D01*
X85433Y23348D01*
X86291Y23519D01*
X87019Y24005D01*
X87505Y24733D01*
X87675Y25591D01*
X87505Y26449D01*
X87318Y26728D01*
X87585Y27228D01*
X87788D01*
Y31827D01*
X79141D01*
Y27390D01*
X78339D01*
Y31827D01*
X73741D01*
Y31368D01*
X71925D01*
Y32476D01*
D02*
G37*
G36*
X90289Y31728D02*
X88689D01*
Y30128D01*
X90289D01*
Y31728D01*
D02*
G37*
G36*
X38900Y10500D02*
X37300D01*
Y8900D01*
X38900D01*
Y10500D01*
D02*
G37*
G36*
X41700D02*
X40100D01*
Y8900D01*
X41700D01*
Y10500D01*
D02*
G37*
G36*
X57019Y12153D02*
X54360D01*
Y9100D01*
X57019D01*
Y12153D01*
D02*
G37*
G36*
X118287Y23040D02*
X116819Y22896D01*
X115406Y22467D01*
X114105Y21771D01*
X112964Y20835D01*
X112028Y19694D01*
X111332Y18393D01*
X110904Y16981D01*
X110759Y15512D01*
X110904Y14043D01*
X111332Y12631D01*
X112028Y11329D01*
X112964Y10188D01*
X114105Y9252D01*
X115406Y8557D01*
X116819Y8128D01*
X118287Y7983D01*
X119756Y8128D01*
X121168Y8557D01*
X122470Y9252D01*
X123611Y10188D01*
X124547Y11329D01*
X125243Y12631D01*
X125671Y14043D01*
X125816Y15512D01*
X125671Y16981D01*
X125243Y18393D01*
X124547Y19694D01*
X123611Y20835D01*
X122470Y21771D01*
X121168Y22467D01*
X119756Y22896D01*
X118287Y23040D01*
D02*
G37*
G36*
X59999Y19799D02*
X55401D01*
Y15201D01*
X56735D01*
X56759Y15077D01*
X56776Y14993D01*
X57063Y14563D01*
X58875Y12752D01*
X58668Y12252D01*
X57882D01*
Y5769D01*
X57638Y5451D01*
X57629Y5430D01*
X57187Y5230D01*
X57041Y5259D01*
X57035Y5260D01*
X57025Y5263D01*
X57019Y5264D01*
Y5266D01*
X57019Y5283D01*
X57019Y5283D01*
X57019Y5284D01*
Y7900D01*
X54360D01*
Y4847D01*
X56811D01*
Y4847D01*
D01*
X56965Y4765D01*
X56965Y4765D01*
X57317Y4460D01*
X57264Y4055D01*
Y-1992D01*
X57288Y-2174D01*
Y-7713D01*
X62823D01*
Y-2870D01*
X64909D01*
Y-4047D01*
X87492D01*
Y-2578D01*
X87992Y-2332D01*
X88104Y-2418D01*
X88778Y-2696D01*
X89500Y-2792D01*
X90223Y-2696D01*
X90896Y-2418D01*
X91474Y-1974D01*
X91918Y-1396D01*
X92197Y-722D01*
X92292Y0D01*
X92197Y722D01*
X91918Y1396D01*
X91474Y1974D01*
X90896Y2418D01*
X90223Y2696D01*
X89500Y2792D01*
X88778Y2696D01*
X88104Y2418D01*
X87992Y2332D01*
X87492Y2578D01*
Y4047D01*
X64909D01*
Y2713D01*
X63355D01*
X63117Y3213D01*
X63418Y3604D01*
X63696Y4278D01*
X63758Y4748D01*
X64599D01*
Y5582D01*
X64909Y5953D01*
X87492D01*
Y14047D01*
X66826D01*
X66437Y14437D01*
X66007Y14724D01*
X65923Y14741D01*
X65500Y14825D01*
X65500Y14825D01*
X60549D01*
X59999Y15374D01*
Y19799D01*
D02*
G37*
G36*
X38900Y7700D02*
X37300D01*
Y6100D01*
X38900D01*
Y7700D01*
D02*
G37*
G36*
X41700D02*
X40100D01*
Y6100D01*
X41700D01*
Y7700D01*
D02*
G37*
G36*
X53160Y12153D02*
X50501D01*
Y10553D01*
X50060Y10317D01*
X49819Y10478D01*
X49600Y10522D01*
Y8500D01*
Y6478D01*
X49819Y6522D01*
X50060Y6683D01*
X50501Y6447D01*
Y4847D01*
X53160D01*
Y8500D01*
Y12153D01*
D02*
G37*
G36*
X34900Y18900D02*
X33682D01*
X33710Y18759D01*
X34130Y18130D01*
X34759Y17710D01*
X34900Y17682D01*
Y18900D01*
D02*
G37*
%LPD*%
G36*
X80905Y16142D02*
X71826D01*
Y17357D01*
X70339D01*
Y17957D01*
X69739D01*
Y20290D01*
X68379D01*
Y17957D01*
X67180D01*
Y20290D01*
X65820D01*
Y17957D01*
X64621D01*
Y20290D01*
X63261D01*
Y17957D01*
X62061D01*
Y20290D01*
X61614D01*
Y26575D01*
X80905D01*
Y16142D01*
D02*
G37*
%LPC*%
G36*
X78991Y19872D02*
X76978D01*
Y17860D01*
X77075Y17873D01*
X77724Y18142D01*
X78281Y18569D01*
X78709Y19127D01*
X78978Y19776D01*
X78991Y19872D01*
D02*
G37*
G36*
X71826Y20290D02*
X70939D01*
Y18557D01*
X71826D01*
Y20290D01*
D02*
G37*
G36*
X75778Y19872D02*
X73765D01*
X73778Y19776D01*
X74047Y19127D01*
X74475Y18569D01*
X75032Y18142D01*
X75681Y17873D01*
X75778Y17860D01*
Y19872D01*
D02*
G37*
G36*
X76978Y23085D02*
Y21072D01*
X78991D01*
X78978Y21169D01*
X78709Y21818D01*
X78281Y22376D01*
X77724Y22803D01*
X77075Y23072D01*
X76978Y23085D01*
D02*
G37*
G36*
X75778D02*
X75681Y23072D01*
X75032Y22803D01*
X74475Y22376D01*
X74047Y21818D01*
X73778Y21169D01*
X73765Y21072D01*
X75778D01*
Y23085D01*
D02*
G37*
%LPD*%
D10*
X81440Y29528D02*
D03*
X76040D02*
D03*
X57700Y17500D02*
D03*
X52300D02*
D03*
X90889Y29528D02*
D03*
X85489D02*
D03*
D15*
X52362Y28291D02*
D03*
Y22891D02*
D03*
X57087Y28291D02*
D03*
Y22891D02*
D03*
X39500Y8300D02*
D03*
Y13700D02*
D03*
D16*
X76122Y-79D02*
X76201Y0D01*
X61524Y-79D02*
X76122D01*
X41831Y-8000D02*
X41945Y-7887D01*
Y-1992D01*
X51000Y-26008D02*
Y-1992D01*
X60055D02*
Y4055D01*
X61000Y5000D02*
Y8260D01*
X61240Y8500D01*
X60055Y4055D02*
X61000Y5000D01*
X61240Y7500D02*
Y8500D01*
D17*
X52362Y28291D02*
X57087D01*
X56693Y28684D02*
Y34252D01*
X76201Y0D02*
X78079D01*
X85433Y25591D02*
Y29472D01*
X81440Y29528D02*
X85489D01*
X58000Y15500D02*
Y17200D01*
X57700Y17500D02*
X58000Y17200D01*
Y15500D02*
X60000Y13500D01*
X65500D01*
X34500Y11240D02*
X39760Y16500D01*
X34500Y-26000D02*
Y11240D01*
X39500Y-16000D02*
X42000Y-13500D01*
X39500Y-35000D02*
Y-16000D01*
X42000Y-13500D02*
X42122D01*
X46500Y-9122D01*
X45000Y6866D02*
Y10200D01*
X52300Y17500D01*
X45000Y4000D02*
Y6866D01*
X46500Y-9122D02*
Y2500D01*
X45000Y4000D02*
X46500Y2500D01*
X51000Y-26008D02*
X51992Y-27000D01*
X51000Y-26008D02*
X52575D01*
X29500Y34500D02*
X34141D01*
X27500Y36500D02*
X29500Y34500D01*
X69079Y9921D02*
X78000D01*
X65500Y13500D02*
X69079Y9921D01*
X-16000Y36500D02*
X27500D01*
X-39000Y13500D02*
X-16000Y36500D01*
X-39000Y-18500D02*
Y13500D01*
Y-18500D02*
X-32500Y-25000D01*
X47240Y25240D02*
Y29224D01*
X70339Y30043D02*
X76040D01*
X39760Y25240D02*
Y29224D01*
Y25240D02*
X40500Y24500D01*
X42516D01*
X47240Y19776D01*
X50265Y22800D01*
X53000D01*
D18*
X102559Y-27559D02*
X106299D01*
X85732Y-19000D02*
X94291Y-27559D01*
X59583Y-19000D02*
X85732D01*
X51992Y-27000D02*
X65488D01*
X52575Y-26008D02*
X59583Y-19000D01*
X78079Y0D02*
X89500D01*
D19*
X39760Y16500D02*
X41126Y15134D01*
X45000D01*
X39500Y8300D02*
X41945Y5855D01*
Y-1992D02*
Y5855D01*
X76512Y-27000D02*
X86500D01*
D20*
X118287Y-15512D02*
D03*
Y15512D02*
D03*
D21*
X0Y0D02*
D03*
D22*
X-52756Y33071D02*
D03*
Y-33071D02*
D03*
X123622D02*
D03*
Y33071D02*
D03*
D23*
X76378Y20472D02*
D03*
X106299Y-27559D02*
D03*
X89500Y0D02*
D03*
D24*
X56693Y34252D02*
D03*
X63779Y24173D02*
D03*
X66417Y24134D02*
D03*
X69095Y24173D02*
D03*
Y20630D02*
D03*
X66417Y20591D02*
D03*
X63779Y20630D02*
D03*
D25*
X85433Y25591D02*
D03*
X42000Y-13500D02*
D03*
X41831Y-8000D02*
D03*
X39500Y-35000D02*
D03*
X34500Y-26000D02*
D03*
X-27000Y-33000D02*
D03*
X34141Y34500D02*
D03*
X-32500Y-25000D02*
D03*
X49000Y8500D02*
D03*
X86500Y-27000D02*
D03*
X47240Y25240D02*
D03*
X39760Y16500D02*
D03*
D26*
X93500Y-6000D02*
D03*
X-52000Y2500D02*
D03*
Y-12000D02*
D03*
X35500Y19500D02*
D03*
D27*
X76201Y-10000D02*
D03*
Y-0D02*
D03*
Y10000D02*
D03*
D28*
X41945Y-1992D02*
D03*
X51000D02*
D03*
X60055D02*
D03*
D29*
X51000Y-26008D02*
D03*
D30*
X102559Y-27559D02*
D03*
X94291D02*
D03*
D31*
X65354D02*
D03*
X76378D02*
D03*
D32*
X61240Y8500D02*
D03*
X53760D02*
D03*
D33*
X39760Y29224D02*
D03*
X43500D02*
D03*
X47240D02*
D03*
Y19776D02*
D03*
X39760D02*
D03*
D34*
X62661Y17957D02*
D03*
X65220D02*
D03*
X67779D02*
D03*
X70339D02*
D03*
Y30043D02*
D03*
X67779D02*
D03*
X65220D02*
D03*
X62661D02*
D03*
D35*
X45000Y6866D02*
D03*
Y15134D02*
D03*
D36*
X34500Y-28500D02*
Y-26000D01*
X26500Y-36500D02*
X34500Y-28500D01*
X-31000Y-36500D02*
X26500D01*
X-47500Y-20000D02*
X-31000Y-36500D01*
X-47500Y-20000D02*
Y-2000D01*
X-52000Y2500D02*
X-47500Y-2000D01*
D37*
X49000Y8500D02*
X53760D01*
D38*
X66500Y22406D02*
D03*
M02*
