G04*
G04 #@! TF.GenerationSoftware,Altium Limited,CircuitStudio,1.5.2 (30)*
G04*
G04 Layer_Color=8150272*
%FSLAX25Y25*%
%MOIN*%
G70*
G01*
G75*
%ADD43R,0.03800X0.03800*%
%ADD48R,0.03800X0.03800*%
%ADD49C,0.13986*%
%ADD50C,0.63398*%
%ADD51C,0.10642*%
%ADD52R,0.21584X0.07096*%
%ADD53R,0.04737X0.10642*%
%ADD54R,0.13792X0.10642*%
%ADD55R,0.03162X0.02769*%
%ADD56R,0.07099X0.07887*%
%ADD57R,0.05918X0.06706*%
%ADD58R,0.03359X0.05131*%
%ADD59R,0.01969X0.03661*%
%ADD60R,0.02769X0.03162*%
%ADD61R,0.09252X0.07677*%
%ADD62C,0.03162*%
D43*
X81440Y29528D02*
D03*
X76040D02*
D03*
X57700Y17500D02*
D03*
X52300D02*
D03*
X90889Y29528D02*
D03*
X85489D02*
D03*
D48*
X52362Y28291D02*
D03*
Y22891D02*
D03*
X57087Y28291D02*
D03*
Y22891D02*
D03*
X39500Y8300D02*
D03*
Y13700D02*
D03*
D49*
X118287Y-15512D02*
D03*
Y15512D02*
D03*
D50*
X0Y0D02*
D03*
D51*
X-52756Y33071D02*
D03*
Y-33071D02*
D03*
X123622D02*
D03*
Y33071D02*
D03*
D52*
X76201Y-10000D02*
D03*
Y-0D02*
D03*
Y10000D02*
D03*
D53*
X41945Y-1992D02*
D03*
X51000D02*
D03*
X60055D02*
D03*
D54*
X51000Y-26008D02*
D03*
D55*
X102559Y-27559D02*
D03*
X94291D02*
D03*
D56*
X65354D02*
D03*
X76378D02*
D03*
D57*
X61240Y8500D02*
D03*
X53760D02*
D03*
D58*
X39760Y29224D02*
D03*
X43500D02*
D03*
X47240D02*
D03*
Y19776D02*
D03*
X39760D02*
D03*
D59*
X62661Y17957D02*
D03*
X65220D02*
D03*
X67779D02*
D03*
X70339D02*
D03*
Y30043D02*
D03*
X67779D02*
D03*
X65220D02*
D03*
X62661D02*
D03*
D60*
X45000Y6866D02*
D03*
Y15134D02*
D03*
D61*
X66500Y22406D02*
D03*
D62*
X63779Y24173D02*
D03*
X66417Y24134D02*
D03*
X69095Y24173D02*
D03*
Y20630D02*
D03*
X66417Y20591D02*
D03*
X63779Y20630D02*
D03*
M02*
