G04*
G04 #@! TF.GenerationSoftware,Altium Limited,CircuitStudio,1.5.2 (30)*
G04*
G04 Layer_Color=15065295*
%FSLAX25Y25*%
%MOIN*%
G70*
G01*
G75*
%ADD17C,0.01000*%
%ADD39C,0.03150*%
%ADD40C,0.00500*%
%ADD41R,0.19028X0.03413*%
%ADD42R,0.04921X0.03175*%
G36*
X-10913Y35500D02*
X-11160D01*
Y37074D01*
X-11163Y37071D01*
X-11177Y37060D01*
X-11195Y37042D01*
X-11224Y37022D01*
X-11256Y36996D01*
X-11297Y36967D01*
X-11343Y36935D01*
X-11395Y36903D01*
X-11398D01*
X-11401Y36900D01*
X-11419Y36888D01*
X-11448Y36873D01*
X-11483Y36856D01*
X-11524Y36836D01*
X-11567Y36815D01*
X-11611Y36795D01*
X-11654Y36777D01*
Y37016D01*
X-11652D01*
X-11646Y37022D01*
X-11634Y37025D01*
X-11620Y37034D01*
X-11602Y37042D01*
X-11582Y37054D01*
X-11532Y37083D01*
X-11474Y37115D01*
X-11416Y37156D01*
X-11355Y37202D01*
X-11294Y37252D01*
X-11291Y37255D01*
X-11288Y37258D01*
X-11279Y37266D01*
X-11268Y37275D01*
X-11241Y37304D01*
X-11206Y37339D01*
X-11171Y37380D01*
X-11134Y37426D01*
X-11102Y37473D01*
X-11073Y37522D01*
X-10913D01*
Y35500D01*
D02*
G37*
G36*
X-14209Y37275D02*
X-14873D01*
Y35500D01*
X-15141D01*
Y37275D01*
X-15804D01*
Y37514D01*
X-14209D01*
Y37275D01*
D02*
G37*
G36*
X-9856Y35500D02*
X-10138D01*
Y35782D01*
X-9856D01*
Y35500D01*
D02*
G37*
G36*
X-12551D02*
X-12787D01*
X-13337Y36961D01*
X-13075D01*
X-12760Y36085D01*
Y36082D01*
X-12757Y36079D01*
X-12754Y36070D01*
X-12752Y36062D01*
X-12743Y36033D01*
X-12731Y35995D01*
X-12717Y35951D01*
X-12699Y35902D01*
X-12685Y35846D01*
X-12667Y35791D01*
X-12664Y35797D01*
X-12661Y35811D01*
X-12653Y35835D01*
X-12644Y35870D01*
X-12629Y35907D01*
X-12615Y35957D01*
X-12595Y36009D01*
X-12574Y36068D01*
X-12251Y36961D01*
X-11995D01*
X-12551Y35500D01*
D02*
G37*
G36*
X-7508D02*
X-7790D01*
Y35782D01*
X-7508D01*
Y35500D01*
D02*
G37*
G36*
X-16660Y37511D02*
X-16610Y37508D01*
X-16558Y37505D01*
X-16508Y37499D01*
X-16465Y37493D01*
X-16459D01*
X-16439Y37488D01*
X-16412Y37482D01*
X-16377Y37473D01*
X-16340Y37458D01*
X-16299Y37441D01*
X-16255Y37421D01*
X-16217Y37397D01*
X-16212Y37394D01*
X-16200Y37386D01*
X-16183Y37368D01*
X-16159Y37348D01*
X-16133Y37322D01*
X-16107Y37287D01*
X-16078Y37249D01*
X-16054Y37205D01*
X-16051Y37199D01*
X-16046Y37185D01*
X-16034Y37159D01*
X-16022Y37124D01*
X-16014Y37083D01*
X-16002Y37036D01*
X-15996Y36984D01*
X-15993Y36929D01*
Y36926D01*
Y36917D01*
Y36906D01*
X-15996Y36885D01*
X-15999Y36865D01*
X-16002Y36839D01*
X-16008Y36810D01*
X-16014Y36777D01*
X-16034Y36711D01*
X-16046Y36676D01*
X-16063Y36638D01*
X-16083Y36600D01*
X-16104Y36565D01*
X-16130Y36530D01*
X-16159Y36495D01*
X-16162Y36492D01*
X-16168Y36487D01*
X-16177Y36478D01*
X-16191Y36469D01*
X-16209Y36454D01*
X-16232Y36440D01*
X-16261Y36423D01*
X-16293Y36408D01*
X-16331Y36391D01*
X-16375Y36373D01*
X-16421Y36358D01*
X-16476Y36347D01*
X-16535Y36335D01*
X-16599Y36326D01*
X-16671Y36321D01*
X-16747Y36318D01*
X-17262D01*
Y35500D01*
X-17530D01*
Y37514D01*
X-16703D01*
X-16660Y37511D01*
D02*
G37*
G36*
X-26542Y37275D02*
X-27732D01*
Y36661D01*
X-26618D01*
Y36423D01*
X-27732D01*
Y35739D01*
X-26496D01*
Y35500D01*
X-28000D01*
Y37514D01*
X-26542D01*
Y37275D01*
D02*
G37*
G36*
X-6431Y37519D02*
X-6393Y37514D01*
X-6350Y37505D01*
X-6303Y37493D01*
X-6254Y37479D01*
X-6207Y37455D01*
X-6204D01*
X-6201Y37453D01*
X-6187Y37444D01*
X-6163Y37429D01*
X-6134Y37409D01*
X-6102Y37380D01*
X-6067Y37348D01*
X-6035Y37310D01*
X-6003Y37266D01*
X-6000Y37261D01*
X-5989Y37246D01*
X-5977Y37220D01*
X-5957Y37182D01*
X-5939Y37138D01*
X-5916Y37089D01*
X-5896Y37031D01*
X-5878Y36967D01*
Y36964D01*
X-5875Y36958D01*
X-5872Y36949D01*
X-5869Y36935D01*
X-5866Y36917D01*
X-5864Y36897D01*
X-5858Y36871D01*
X-5855Y36841D01*
X-5849Y36810D01*
X-5846Y36775D01*
X-5843Y36734D01*
X-5837Y36693D01*
X-5835Y36647D01*
Y36600D01*
X-5832Y36548D01*
Y36492D01*
Y36489D01*
Y36478D01*
Y36457D01*
Y36434D01*
X-5835Y36402D01*
Y36367D01*
X-5837Y36329D01*
X-5840Y36289D01*
X-5849Y36195D01*
X-5864Y36099D01*
X-5881Y36006D01*
X-5893Y35963D01*
X-5907Y35919D01*
Y35916D01*
X-5910Y35910D01*
X-5916Y35899D01*
X-5922Y35884D01*
X-5928Y35864D01*
X-5939Y35843D01*
X-5963Y35794D01*
X-5992Y35741D01*
X-6030Y35683D01*
X-6073Y35631D01*
X-6126Y35581D01*
X-6128D01*
X-6131Y35576D01*
X-6140Y35570D01*
X-6152Y35564D01*
X-6166Y35555D01*
X-6181Y35544D01*
X-6225Y35523D01*
X-6277Y35503D01*
X-6338Y35482D01*
X-6411Y35471D01*
X-6489Y35465D01*
X-6518D01*
X-6539Y35468D01*
X-6562Y35471D01*
X-6591Y35477D01*
X-6623Y35482D01*
X-6658Y35491D01*
X-6693Y35503D01*
X-6731Y35515D01*
X-6769Y35532D01*
X-6807Y35552D01*
X-6844Y35576D01*
X-6882Y35605D01*
X-6917Y35637D01*
X-6949Y35672D01*
X-6952Y35675D01*
X-6958Y35683D01*
X-6966Y35698D01*
X-6981Y35721D01*
X-6996Y35747D01*
X-7010Y35782D01*
X-7030Y35823D01*
X-7048Y35870D01*
X-7066Y35922D01*
X-7083Y35983D01*
X-7100Y36050D01*
X-7115Y36126D01*
X-7130Y36207D01*
X-7138Y36294D01*
X-7144Y36391D01*
X-7147Y36492D01*
Y36495D01*
Y36507D01*
Y36527D01*
Y36551D01*
X-7144Y36582D01*
Y36617D01*
X-7141Y36655D01*
X-7138Y36699D01*
X-7130Y36789D01*
X-7115Y36885D01*
X-7097Y36981D01*
X-7086Y37025D01*
X-7074Y37069D01*
Y37071D01*
X-7071Y37077D01*
X-7066Y37089D01*
X-7060Y37103D01*
X-7054Y37124D01*
X-7042Y37144D01*
X-7019Y37194D01*
X-6990Y37246D01*
X-6952Y37301D01*
X-6908Y37357D01*
X-6856Y37403D01*
X-6853D01*
X-6850Y37409D01*
X-6841Y37415D01*
X-6830Y37421D01*
X-6815Y37432D01*
X-6798Y37441D01*
X-6754Y37464D01*
X-6702Y37485D01*
X-6641Y37505D01*
X-6568Y37517D01*
X-6489Y37522D01*
X-6463D01*
X-6431Y37519D01*
D02*
G37*
G36*
X-24752Y37275D02*
X-25847D01*
Y36652D01*
X-24901D01*
Y36414D01*
X-25847D01*
Y35500D01*
X-26114D01*
Y37514D01*
X-24752D01*
Y37275D01*
D02*
G37*
G36*
X-21569Y37511D02*
X-21543D01*
X-21482Y37508D01*
X-21418Y37499D01*
X-21348Y37490D01*
X-21284Y37476D01*
X-21252Y37467D01*
X-21226Y37458D01*
X-21223D01*
X-21220Y37455D01*
X-21202Y37447D01*
X-21176Y37435D01*
X-21144Y37415D01*
X-21109Y37389D01*
X-21071Y37354D01*
X-21036Y37313D01*
X-21001Y37266D01*
Y37264D01*
X-20999Y37261D01*
X-20987Y37243D01*
X-20975Y37214D01*
X-20958Y37176D01*
X-20943Y37132D01*
X-20929Y37080D01*
X-20920Y37025D01*
X-20917Y36964D01*
Y36961D01*
Y36955D01*
Y36943D01*
X-20920Y36929D01*
Y36908D01*
X-20923Y36888D01*
X-20934Y36839D01*
X-20952Y36780D01*
X-20975Y36719D01*
X-21010Y36658D01*
X-21034Y36629D01*
X-21057Y36600D01*
X-21060Y36597D01*
X-21063Y36594D01*
X-21071Y36585D01*
X-21083Y36577D01*
X-21098Y36565D01*
X-21115Y36553D01*
X-21138Y36539D01*
X-21161Y36521D01*
X-21191Y36507D01*
X-21223Y36492D01*
X-21258Y36475D01*
X-21295Y36460D01*
X-21339Y36449D01*
X-21383Y36434D01*
X-21432Y36425D01*
X-21485Y36417D01*
X-21479Y36414D01*
X-21467Y36408D01*
X-21450Y36396D01*
X-21426Y36385D01*
X-21374Y36353D01*
X-21348Y36332D01*
X-21325Y36315D01*
X-21319Y36309D01*
X-21304Y36294D01*
X-21281Y36271D01*
X-21252Y36242D01*
X-21220Y36201D01*
X-21182Y36158D01*
X-21144Y36105D01*
X-21103Y36047D01*
X-20757Y35500D01*
X-21089D01*
X-21354Y35919D01*
Y35922D01*
X-21359Y35928D01*
X-21365Y35936D01*
X-21374Y35948D01*
X-21394Y35980D01*
X-21420Y36021D01*
X-21452Y36064D01*
X-21485Y36111D01*
X-21517Y36155D01*
X-21546Y36195D01*
X-21549Y36198D01*
X-21557Y36210D01*
X-21572Y36228D01*
X-21592Y36248D01*
X-21636Y36292D01*
X-21659Y36312D01*
X-21682Y36329D01*
X-21685Y36332D01*
X-21691Y36335D01*
X-21703Y36341D01*
X-21720Y36350D01*
X-21738Y36358D01*
X-21758Y36367D01*
X-21805Y36382D01*
X-21808D01*
X-21813Y36385D01*
X-21825D01*
X-21839Y36388D01*
X-21860Y36391D01*
X-21883D01*
X-21915Y36393D01*
X-22259D01*
Y35500D01*
X-22526D01*
Y37514D01*
X-21592D01*
X-21569Y37511D01*
D02*
G37*
G36*
X-23536D02*
X-23487Y37508D01*
X-23434Y37505D01*
X-23385Y37499D01*
X-23341Y37493D01*
X-23335D01*
X-23315Y37488D01*
X-23289Y37482D01*
X-23254Y37473D01*
X-23216Y37458D01*
X-23175Y37441D01*
X-23132Y37421D01*
X-23094Y37397D01*
X-23088Y37394D01*
X-23076Y37386D01*
X-23059Y37368D01*
X-23035Y37348D01*
X-23009Y37322D01*
X-22983Y37287D01*
X-22954Y37249D01*
X-22931Y37205D01*
X-22928Y37199D01*
X-22922Y37185D01*
X-22910Y37159D01*
X-22899Y37124D01*
X-22890Y37083D01*
X-22878Y37036D01*
X-22873Y36984D01*
X-22870Y36929D01*
Y36926D01*
Y36917D01*
Y36906D01*
X-22873Y36885D01*
X-22875Y36865D01*
X-22878Y36839D01*
X-22884Y36810D01*
X-22890Y36777D01*
X-22910Y36711D01*
X-22922Y36676D01*
X-22940Y36638D01*
X-22960Y36600D01*
X-22980Y36565D01*
X-23006Y36530D01*
X-23035Y36495D01*
X-23039Y36492D01*
X-23044Y36487D01*
X-23053Y36478D01*
X-23067Y36469D01*
X-23085Y36454D01*
X-23108Y36440D01*
X-23137Y36423D01*
X-23169Y36408D01*
X-23207Y36391D01*
X-23251Y36373D01*
X-23297Y36358D01*
X-23353Y36347D01*
X-23411Y36335D01*
X-23475Y36326D01*
X-23548Y36321D01*
X-23623Y36318D01*
X-24138D01*
Y35500D01*
X-24406D01*
Y37514D01*
X-23580D01*
X-23536Y37511D01*
D02*
G37*
G36*
X-30144Y37460D02*
X-30097Y37455D01*
X-30047Y37446D01*
X-29987Y37437D01*
X-29926Y37423D01*
X-29857Y37405D01*
X-29788Y37381D01*
X-29719Y37354D01*
X-29645Y37321D01*
X-29571Y37280D01*
X-29502Y37233D01*
X-29432Y37183D01*
X-29368Y37123D01*
X-29363Y37118D01*
X-29354Y37109D01*
X-29335Y37086D01*
X-29317Y37063D01*
X-29289Y37026D01*
X-29261Y36989D01*
X-29229Y36938D01*
X-29197Y36887D01*
X-29169Y36827D01*
X-29136Y36762D01*
X-29109Y36688D01*
X-29081Y36615D01*
X-29063Y36531D01*
X-29044Y36448D01*
X-29035Y36356D01*
X-29030Y36259D01*
Y36254D01*
Y36236D01*
Y36208D01*
X-29035Y36171D01*
X-29039Y36125D01*
X-29049Y36074D01*
X-29058Y36014D01*
X-29072Y35954D01*
X-29090Y35884D01*
X-29113Y35815D01*
X-29141Y35741D01*
X-29173Y35667D01*
X-29215Y35593D01*
X-29261Y35524D01*
X-29312Y35455D01*
X-29372Y35386D01*
X-29377Y35381D01*
X-29386Y35372D01*
X-29405Y35353D01*
X-29432Y35330D01*
X-29465Y35307D01*
X-29506Y35279D01*
X-29552Y35247D01*
X-29603Y35215D01*
X-29663Y35182D01*
X-29728Y35150D01*
X-29797Y35122D01*
X-29876Y35099D01*
X-29954Y35076D01*
X-30042Y35058D01*
X-30130Y35048D01*
X-30227Y35044D01*
X-30259D01*
X-30282Y35048D01*
X-30310D01*
X-30342Y35053D01*
X-30421Y35062D01*
X-30518Y35081D01*
X-30619Y35104D01*
X-30726Y35141D01*
X-30837Y35187D01*
X-30841D01*
X-30850Y35192D01*
X-30864Y35201D01*
X-30883Y35215D01*
X-30934Y35247D01*
X-30998Y35293D01*
X-31068Y35353D01*
X-31142Y35427D01*
X-31211Y35510D01*
X-31275Y35607D01*
Y35612D01*
X-31280Y35621D01*
X-31289Y35635D01*
X-31299Y35658D01*
X-31308Y35686D01*
X-31322Y35718D01*
X-31336Y35755D01*
X-31350Y35797D01*
X-31363Y35843D01*
X-31377Y35894D01*
X-31400Y36009D01*
X-31419Y36143D01*
X-31423Y36286D01*
Y36291D01*
Y36300D01*
Y36319D01*
X-31419Y36337D01*
Y36365D01*
X-31414Y36397D01*
X-31405Y36476D01*
X-31386Y36564D01*
X-31359Y36661D01*
X-31326Y36767D01*
X-31275Y36873D01*
Y36878D01*
X-31266Y36887D01*
X-31262Y36901D01*
X-31248Y36919D01*
X-31211Y36970D01*
X-31165Y37035D01*
X-31105Y37104D01*
X-31031Y37178D01*
X-30948Y37247D01*
X-30850Y37312D01*
X-30846D01*
X-30837Y37317D01*
X-30823Y37326D01*
X-30800Y37335D01*
X-30777Y37349D01*
X-30744Y37358D01*
X-30707Y37372D01*
X-30670Y37391D01*
X-30578Y37418D01*
X-30472Y37441D01*
X-30356Y37460D01*
X-30231Y37464D01*
X-30181D01*
X-30144Y37460D01*
D02*
G37*
G36*
X-17975Y35500D02*
X-18243D01*
Y36449D01*
X-19285D01*
Y35500D01*
X-19552D01*
Y37514D01*
X-19285D01*
Y36687D01*
X-18243D01*
Y37514D01*
X-17975D01*
Y35500D01*
D02*
G37*
G36*
X-33345Y35635D02*
X-31738D01*
Y35094D01*
X-33992D01*
Y38268D01*
X-33345D01*
Y35635D01*
D02*
G37*
G36*
X-29478Y37714D02*
X-30005D01*
Y38241D01*
X-29478D01*
Y37714D01*
D02*
G37*
G36*
X-30421D02*
X-30948D01*
Y38241D01*
X-30421D01*
Y37714D01*
D02*
G37*
G36*
X-8803Y37519D02*
X-8765Y37514D01*
X-8718Y37505D01*
X-8666Y37490D01*
X-8614Y37473D01*
X-8561Y37450D01*
X-8558D01*
X-8555Y37447D01*
X-8538Y37438D01*
X-8512Y37421D01*
X-8483Y37400D01*
X-8448Y37371D01*
X-8413Y37339D01*
X-8378Y37301D01*
X-8349Y37258D01*
X-8346Y37252D01*
X-8337Y37237D01*
X-8326Y37211D01*
X-8311Y37179D01*
X-8296Y37141D01*
X-8285Y37098D01*
X-8276Y37048D01*
X-8273Y36999D01*
Y36993D01*
Y36975D01*
X-8276Y36952D01*
X-8282Y36920D01*
X-8291Y36882D01*
X-8305Y36841D01*
X-8323Y36801D01*
X-8346Y36760D01*
X-8349Y36754D01*
X-8358Y36743D01*
X-8375Y36722D01*
X-8398Y36699D01*
X-8427Y36673D01*
X-8462Y36644D01*
X-8503Y36617D01*
X-8552Y36591D01*
X-8550D01*
X-8544Y36588D01*
X-8535Y36585D01*
X-8523Y36582D01*
X-8491Y36571D01*
X-8451Y36553D01*
X-8404Y36530D01*
X-8358Y36501D01*
X-8314Y36463D01*
X-8273Y36420D01*
X-8270Y36414D01*
X-8259Y36396D01*
X-8241Y36367D01*
X-8224Y36329D01*
X-8206Y36283D01*
X-8189Y36228D01*
X-8177Y36163D01*
X-8174Y36094D01*
Y36091D01*
Y36082D01*
Y36068D01*
X-8177Y36050D01*
X-8180Y36027D01*
X-8186Y36000D01*
X-8192Y35971D01*
X-8197Y35939D01*
X-8221Y35870D01*
X-8238Y35832D01*
X-8256Y35797D01*
X-8279Y35759D01*
X-8305Y35721D01*
X-8334Y35683D01*
X-8369Y35648D01*
X-8372Y35645D01*
X-8378Y35640D01*
X-8389Y35631D01*
X-8404Y35619D01*
X-8422Y35605D01*
X-8445Y35590D01*
X-8471Y35573D01*
X-8503Y35558D01*
X-8535Y35541D01*
X-8573Y35523D01*
X-8611Y35509D01*
X-8654Y35494D01*
X-8701Y35482D01*
X-8750Y35474D01*
X-8800Y35468D01*
X-8855Y35465D01*
X-8881D01*
X-8899Y35468D01*
X-8922Y35471D01*
X-8948Y35474D01*
X-8977Y35480D01*
X-9009Y35485D01*
X-9079Y35503D01*
X-9152Y35532D01*
X-9190Y35550D01*
X-9225Y35570D01*
X-9260Y35596D01*
X-9295Y35622D01*
X-9297Y35625D01*
X-9303Y35631D01*
X-9312Y35640D01*
X-9321Y35651D01*
X-9335Y35666D01*
X-9350Y35686D01*
X-9367Y35707D01*
X-9385Y35733D01*
X-9402Y35762D01*
X-9420Y35791D01*
X-9452Y35861D01*
X-9478Y35942D01*
X-9487Y35986D01*
X-9492Y36033D01*
X-9245Y36064D01*
Y36062D01*
X-9242Y36056D01*
X-9239Y36044D01*
X-9236Y36030D01*
X-9233Y36012D01*
X-9228Y35992D01*
X-9213Y35948D01*
X-9193Y35896D01*
X-9166Y35846D01*
X-9137Y35800D01*
X-9103Y35759D01*
X-9097Y35756D01*
X-9085Y35744D01*
X-9062Y35730D01*
X-9033Y35715D01*
X-8998Y35698D01*
X-8954Y35683D01*
X-8905Y35672D01*
X-8852Y35669D01*
X-8835D01*
X-8823Y35672D01*
X-8791Y35675D01*
X-8750Y35683D01*
X-8704Y35698D01*
X-8654Y35718D01*
X-8605Y35747D01*
X-8558Y35788D01*
X-8552Y35794D01*
X-8538Y35811D01*
X-8521Y35838D01*
X-8497Y35873D01*
X-8474Y35916D01*
X-8456Y35966D01*
X-8442Y36024D01*
X-8436Y36088D01*
Y36091D01*
Y36097D01*
Y36105D01*
X-8439Y36117D01*
X-8442Y36149D01*
X-8451Y36187D01*
X-8462Y36233D01*
X-8483Y36280D01*
X-8512Y36326D01*
X-8550Y36370D01*
X-8555Y36376D01*
X-8570Y36388D01*
X-8593Y36405D01*
X-8625Y36425D01*
X-8666Y36446D01*
X-8715Y36463D01*
X-8771Y36475D01*
X-8832Y36481D01*
X-8858D01*
X-8878Y36478D01*
X-8905Y36475D01*
X-8934Y36469D01*
X-8969Y36463D01*
X-9006Y36454D01*
X-8977Y36673D01*
X-8963D01*
X-8951Y36670D01*
X-8913D01*
X-8881Y36676D01*
X-8844Y36682D01*
X-8800Y36690D01*
X-8750Y36705D01*
X-8704Y36725D01*
X-8654Y36751D01*
X-8651D01*
X-8648Y36754D01*
X-8634Y36766D01*
X-8614Y36786D01*
X-8590Y36812D01*
X-8567Y36850D01*
X-8547Y36894D01*
X-8532Y36943D01*
X-8526Y36972D01*
Y37005D01*
Y37007D01*
Y37010D01*
Y37028D01*
X-8532Y37051D01*
X-8538Y37083D01*
X-8550Y37118D01*
X-8564Y37156D01*
X-8587Y37194D01*
X-8619Y37229D01*
X-8622Y37231D01*
X-8637Y37243D01*
X-8657Y37258D01*
X-8683Y37275D01*
X-8718Y37290D01*
X-8759Y37304D01*
X-8806Y37316D01*
X-8858Y37319D01*
X-8881D01*
X-8907Y37313D01*
X-8942Y37307D01*
X-8980Y37295D01*
X-9018Y37281D01*
X-9059Y37258D01*
X-9097Y37229D01*
X-9100Y37226D01*
X-9111Y37211D01*
X-9129Y37191D01*
X-9149Y37162D01*
X-9169Y37124D01*
X-9190Y37077D01*
X-9207Y37022D01*
X-9219Y36958D01*
X-9466Y37002D01*
Y37005D01*
X-9463Y37013D01*
X-9460Y37025D01*
X-9458Y37042D01*
X-9452Y37063D01*
X-9443Y37086D01*
X-9426Y37141D01*
X-9396Y37205D01*
X-9362Y37269D01*
X-9318Y37330D01*
X-9262Y37386D01*
X-9260Y37389D01*
X-9254Y37391D01*
X-9245Y37397D01*
X-9233Y37406D01*
X-9219Y37418D01*
X-9199Y37429D01*
X-9178Y37441D01*
X-9152Y37455D01*
X-9094Y37479D01*
X-9027Y37502D01*
X-8948Y37517D01*
X-8907Y37522D01*
X-8835D01*
X-8803Y37519D01*
D02*
G37*
G36*
X-19864Y36105D02*
X-20629D01*
Y36353D01*
X-19864D01*
Y36105D01*
D02*
G37*
%LPC*%
G36*
X-30227Y36966D02*
X-30250D01*
X-30268Y36961D01*
X-30310Y36956D01*
X-30365Y36942D01*
X-30430Y36919D01*
X-30499Y36887D01*
X-30569Y36841D01*
X-30633Y36781D01*
X-30638Y36772D01*
X-30656Y36748D01*
X-30684Y36702D01*
X-30712Y36647D01*
X-30744Y36573D01*
X-30767Y36481D01*
X-30786Y36374D01*
X-30795Y36254D01*
Y36250D01*
Y36240D01*
Y36222D01*
X-30790Y36199D01*
Y36166D01*
X-30786Y36134D01*
X-30777Y36060D01*
X-30753Y35972D01*
X-30726Y35884D01*
X-30689Y35797D01*
X-30633Y35723D01*
X-30624Y35714D01*
X-30606Y35695D01*
X-30569Y35667D01*
X-30518Y35635D01*
X-30462Y35598D01*
X-30393Y35570D01*
X-30315Y35552D01*
X-30227Y35543D01*
X-30204D01*
X-30185Y35547D01*
X-30144Y35552D01*
X-30088Y35566D01*
X-30024Y35589D01*
X-29954Y35616D01*
X-29890Y35663D01*
X-29825Y35723D01*
X-29816Y35732D01*
X-29797Y35755D01*
X-29774Y35801D01*
X-29742Y35857D01*
X-29709Y35935D01*
X-29686Y36023D01*
X-29668Y36134D01*
X-29659Y36254D01*
Y36259D01*
Y36268D01*
Y36286D01*
X-29663Y36309D01*
Y36337D01*
X-29668Y36374D01*
X-29677Y36448D01*
X-29700Y36531D01*
X-29728Y36619D01*
X-29769Y36707D01*
X-29825Y36781D01*
X-29834Y36790D01*
X-29853Y36808D01*
X-29890Y36841D01*
X-29936Y36873D01*
X-29996Y36906D01*
X-30060Y36938D01*
X-30139Y36956D01*
X-30227Y36966D01*
D02*
G37*
G36*
X-6492Y37319D02*
X-6510D01*
X-6521Y37316D01*
X-6553Y37310D01*
X-6591Y37301D01*
X-6635Y37284D01*
X-6681Y37258D01*
X-6705Y37240D01*
X-6728Y37223D01*
X-6748Y37199D01*
X-6769Y37173D01*
Y37170D01*
X-6775Y37165D01*
X-6780Y37153D01*
X-6789Y37138D01*
X-6798Y37115D01*
X-6809Y37089D01*
X-6818Y37057D01*
X-6830Y37019D01*
X-6841Y36975D01*
X-6853Y36926D01*
X-6865Y36871D01*
X-6873Y36810D01*
X-6882Y36740D01*
X-6888Y36664D01*
X-6891Y36582D01*
X-6894Y36492D01*
Y36487D01*
Y36472D01*
Y36446D01*
X-6891Y36411D01*
Y36373D01*
X-6888Y36326D01*
X-6885Y36277D01*
X-6879Y36225D01*
X-6865Y36111D01*
X-6856Y36056D01*
X-6844Y36003D01*
X-6833Y35954D01*
X-6815Y35907D01*
X-6798Y35867D01*
X-6777Y35832D01*
Y35829D01*
X-6772Y35826D01*
X-6757Y35805D01*
X-6731Y35779D01*
X-6699Y35750D01*
X-6655Y35721D01*
X-6606Y35695D01*
X-6550Y35675D01*
X-6521Y35672D01*
X-6489Y35669D01*
X-6472D01*
X-6460Y35672D01*
X-6431Y35677D01*
X-6390Y35689D01*
X-6347Y35710D01*
X-6297Y35739D01*
X-6274Y35756D01*
X-6251Y35779D01*
X-6227Y35803D01*
X-6204Y35832D01*
Y35835D01*
X-6198Y35840D01*
X-6193Y35849D01*
X-6187Y35864D01*
X-6175Y35884D01*
X-6166Y35910D01*
X-6155Y35939D01*
X-6143Y35974D01*
X-6134Y36018D01*
X-6123Y36064D01*
X-6111Y36120D01*
X-6102Y36178D01*
X-6096Y36248D01*
X-6091Y36321D01*
X-6085Y36402D01*
Y36492D01*
Y36495D01*
Y36498D01*
Y36513D01*
Y36539D01*
X-6088Y36574D01*
Y36612D01*
X-6091Y36658D01*
X-6094Y36708D01*
X-6099Y36763D01*
X-6114Y36873D01*
X-6123Y36929D01*
X-6134Y36981D01*
X-6146Y37031D01*
X-6163Y37077D01*
X-6181Y37118D01*
X-6201Y37153D01*
Y37156D01*
X-6207Y37159D01*
X-6213Y37167D01*
X-6222Y37179D01*
X-6248Y37205D01*
X-6280Y37237D01*
X-6323Y37266D01*
X-6373Y37293D01*
X-6399Y37304D01*
X-6428Y37313D01*
X-6460Y37316D01*
X-6492Y37319D01*
D02*
G37*
G36*
X-21624Y37290D02*
X-22259D01*
Y36623D01*
X-21659D01*
X-21624Y36626D01*
X-21583Y36629D01*
X-21537Y36632D01*
X-21490Y36638D01*
X-21444Y36647D01*
X-21403Y36658D01*
X-21397Y36661D01*
X-21386Y36667D01*
X-21368Y36676D01*
X-21345Y36687D01*
X-21319Y36705D01*
X-21292Y36725D01*
X-21266Y36751D01*
X-21246Y36780D01*
X-21243Y36783D01*
X-21237Y36795D01*
X-21228Y36812D01*
X-21217Y36836D01*
X-21208Y36862D01*
X-21199Y36891D01*
X-21193Y36926D01*
X-21191Y36961D01*
Y36964D01*
Y36967D01*
X-21193Y36984D01*
X-21196Y37010D01*
X-21202Y37045D01*
X-21217Y37080D01*
X-21234Y37121D01*
X-21260Y37159D01*
X-21295Y37196D01*
X-21301Y37199D01*
X-21316Y37211D01*
X-21339Y37226D01*
X-21377Y37243D01*
X-21420Y37261D01*
X-21479Y37275D01*
X-21546Y37287D01*
X-21624Y37290D01*
D02*
G37*
G36*
X-16686Y37275D02*
X-17262D01*
Y36556D01*
X-16721D01*
X-16701Y36559D01*
X-16680D01*
X-16657Y36562D01*
X-16601Y36568D01*
X-16540Y36580D01*
X-16479Y36597D01*
X-16424Y36620D01*
X-16398Y36635D01*
X-16377Y36652D01*
X-16372Y36658D01*
X-16360Y36670D01*
X-16342Y36693D01*
X-16322Y36722D01*
X-16302Y36760D01*
X-16284Y36807D01*
X-16273Y36859D01*
X-16267Y36920D01*
Y36923D01*
Y36926D01*
Y36940D01*
X-16270Y36967D01*
X-16276Y36996D01*
X-16281Y37028D01*
X-16293Y37066D01*
X-16310Y37100D01*
X-16331Y37135D01*
X-16334Y37138D01*
X-16342Y37150D01*
X-16357Y37165D01*
X-16375Y37185D01*
X-16401Y37205D01*
X-16430Y37223D01*
X-16462Y37240D01*
X-16500Y37255D01*
X-16503D01*
X-16514Y37258D01*
X-16532Y37261D01*
X-16555Y37266D01*
X-16590Y37269D01*
X-16634Y37272D01*
X-16686Y37275D01*
D02*
G37*
G36*
X-23562D02*
X-24138D01*
Y36556D01*
X-23597D01*
X-23577Y36559D01*
X-23556D01*
X-23533Y36562D01*
X-23478Y36568D01*
X-23417Y36580D01*
X-23356Y36597D01*
X-23300Y36620D01*
X-23274Y36635D01*
X-23254Y36652D01*
X-23248Y36658D01*
X-23236Y36670D01*
X-23219Y36693D01*
X-23199Y36722D01*
X-23178Y36760D01*
X-23161Y36807D01*
X-23149Y36859D01*
X-23143Y36920D01*
Y36923D01*
Y36926D01*
Y36940D01*
X-23146Y36967D01*
X-23152Y36996D01*
X-23158Y37028D01*
X-23169Y37066D01*
X-23187Y37100D01*
X-23207Y37135D01*
X-23210Y37138D01*
X-23219Y37150D01*
X-23233Y37165D01*
X-23251Y37185D01*
X-23277Y37205D01*
X-23306Y37223D01*
X-23338Y37240D01*
X-23376Y37255D01*
X-23379D01*
X-23391Y37258D01*
X-23408Y37261D01*
X-23431Y37266D01*
X-23466Y37269D01*
X-23510Y37272D01*
X-23562Y37275D01*
D02*
G37*
%LPD*%
D17*
X-38992Y34150D02*
G03*
X-40961Y32221I-20J-1949D01*
G01*
X-23205Y30071D02*
G03*
X-21276Y32000I0J1929D01*
G01*
X-38992Y34150D02*
X-21276D01*
X-38992Y34150D02*
X-38992Y34150D01*
X-21276Y32000D02*
Y34150D01*
X-40961Y30000D02*
Y32221D01*
Y30000D02*
X-40961Y30000D01*
X-23276D01*
X-23205Y30071D01*
X14500Y-35501D02*
X18499D01*
X16499Y-33502D02*
Y-37500D01*
X13500Y34999D02*
X17499D01*
D39*
X-37795Y-35000D02*
G03*
X-37795Y-35000I-1575J0D01*
G01*
D40*
X-26700D02*
Y-31000D01*
X-17300Y-35000D02*
Y-31000D01*
X-26700Y-35000D02*
X-23200D01*
X-26700Y-31000D02*
X-23200D01*
X-20800D02*
X-17300D01*
X-20800Y-35000D02*
X-17300D01*
X-26800D02*
Y-31000D01*
X-36200Y-35000D02*
Y-31000D01*
X-30300D02*
X-26800D01*
X-30300Y-35000D02*
X-26800D01*
X-36200D02*
X-32700D01*
X-36200Y-31000D02*
X-32700D01*
X-54500Y10106D02*
Y10894D01*
X-49500Y10106D02*
Y10894D01*
X-50000Y-17300D02*
Y-13800D01*
X-54000Y-17300D02*
Y-13800D01*
Y-23200D02*
Y-19700D01*
X-50000Y-23200D02*
Y-19700D01*
X-54000Y-13800D02*
X-50000D01*
X-54000Y-23200D02*
X-50000D01*
X-54000Y-10700D02*
Y-7200D01*
X-50000Y-10700D02*
Y-7200D01*
Y-4800D02*
Y-1300D01*
X-54000Y-4800D02*
Y-1300D01*
Y-10700D02*
X-50000D01*
X-54000Y-1300D02*
X-50000D01*
X-33500Y-39000D02*
Y-35851D01*
X-31926D01*
X-31401Y-36376D01*
Y-37426D01*
X-31926Y-37951D01*
X-33500D01*
X-32451D02*
X-31401Y-39000D01*
X-30351Y-35851D02*
X-28252D01*
Y-36376D01*
X-30351Y-38475D01*
Y-39000D01*
X-25000D02*
Y-35851D01*
X-23426D01*
X-22901Y-36376D01*
Y-37426D01*
X-23426Y-37951D01*
X-25000D01*
X-23950D02*
X-22901Y-39000D01*
X-19752Y-35851D02*
X-20802Y-36376D01*
X-21851Y-37426D01*
Y-38475D01*
X-21327Y-39000D01*
X-20277D01*
X-19752Y-38475D01*
Y-37951D01*
X-20277Y-37426D01*
X-21851D01*
X-57499Y-19001D02*
X-57999Y-19500D01*
Y-20500D01*
X-57499Y-21000D01*
X-55500D01*
X-55000Y-20500D01*
Y-19500D01*
X-55500Y-19001D01*
X-57999Y-16002D02*
X-57499Y-17001D01*
X-56499Y-18001D01*
X-55500D01*
X-55000Y-17501D01*
Y-16501D01*
X-55500Y-16002D01*
X-56000D01*
X-56499Y-16501D01*
Y-18001D01*
X30001Y-27000D02*
X32500D01*
X33000Y-26500D01*
Y-25501D01*
X32500Y-25001D01*
X30001D01*
X33000Y-22002D02*
Y-24001D01*
X31001Y-22002D01*
X30501D01*
X30001Y-22501D01*
Y-23501D01*
X30501Y-24001D01*
X-46500Y-35139D02*
Y-37106D01*
X-46106Y-37500D01*
X-45319D01*
X-44926Y-37106D01*
Y-35139D01*
X-44139Y-37500D02*
X-43351D01*
X-43745D01*
Y-35139D01*
X-44139Y-35532D01*
X-57499Y-6521D02*
X-57999Y-7021D01*
Y-8020D01*
X-57499Y-8520D01*
X-55500D01*
X-55000Y-8020D01*
Y-7021D01*
X-55500Y-6521D01*
X-55000Y-3522D02*
Y-5521D01*
X-56999Y-3522D01*
X-57499D01*
X-57999Y-4022D01*
Y-5021D01*
X-57499Y-5521D01*
X-52999Y20499D02*
X-53499Y19999D01*
Y19000D01*
X-52999Y18500D01*
X-51000D01*
X-50500Y19000D01*
Y19999D01*
X-51000Y20499D01*
X-50500Y21499D02*
Y22499D01*
Y21999D01*
X-53499D01*
X-52999Y21499D01*
D41*
X-31014Y32207D02*
D03*
D42*
X-37004Y36643D02*
D03*
M02*
